<svg width="302" height="91" viewBox="0 0 302 91" fill="none" xmlns="http://www.w3.org/2000/svg">
<path d="M65.28 66.984H68.864V89H5.504V85.416L12.544 84.52C13.9093 84.3493 14.72 84.008 14.976 83.496C15.232 82.8987 15.36 81.1493 15.36 78.248V12.712C15.36 9.81066 15.232 8.10399 14.976 7.592C14.72 6.99466 13.9093 6.61066 12.544 6.43999L5.504 5.544V1.96H67.584V23.976H64L59.904 9.768C59.648 8.744 59.3493 8.01866 59.008 7.592C58.752 7.08 58.1973 6.78133 57.344 6.696C56.4907 6.52533 55.04 6.43999 52.992 6.43999H30.72V42.792H45.312C47.36 42.792 48.8107 42.7493 49.664 42.664C50.5173 42.4933 51.072 42.1947 51.328 41.768C51.6693 41.256 51.968 40.488 52.224 39.464L55.04 29.096H58.624V60.968H55.04L52.224 50.6C51.968 49.576 51.6693 48.8507 51.328 48.424C51.072 47.912 50.5173 47.6133 49.664 47.528C48.8107 47.3573 47.36 47.272 45.312 47.272H30.72V84.52H54.272C56.32 84.52 57.7707 84.4773 58.624 84.392C59.4773 84.2213 60.032 83.9227 60.288 83.496C60.6293 82.984 60.928 82.216 61.184 81.192L65.28 66.984ZM95.685 85.8C100.805 85.8 105.029 84.6053 108.357 82.216C111.77 79.7413 113.477 75.9013 113.477 70.696C113.477 66.856 112.325 63.656 110.021 61.096C107.802 58.536 103.792 56.4027 97.989 54.696L86.085 51.112C80.1117 49.32 75.5037 46.248 72.261 41.896C69.1037 37.4587 67.525 31.9547 67.525 25.384C67.525 21.032 68.5063 16.9787 70.469 13.224C72.517 9.46933 75.589 6.43999 79.685 4.13599C83.8663 1.83199 89.1143 0.679993 95.429 0.679993C102.341 0.679993 107.93 1.95999 112.197 4.52C116.464 6.99466 119.45 10.2373 121.157 14.248C122.864 18.2587 123.29 22.568 122.437 27.176L107.717 29.864C109.082 21.928 108.485 15.8267 105.925 11.56C103.45 7.29333 99.397 5.16 93.765 5.16C89.413 5.16 85.9143 6.44 83.269 9C80.709 11.56 79.429 15.2293 79.429 20.008C79.429 23.9333 80.5383 27.3893 82.757 30.376C85.061 33.3627 88.8157 35.6667 94.021 37.288L105.925 40.872C112.41 42.7493 117.274 45.608 120.517 49.448C123.76 53.2027 125.381 58.4507 125.381 65.192C125.381 69.9707 124.272 74.28 122.053 78.12C119.92 81.8747 116.634 84.8613 112.197 87.08C107.845 89.2133 102.384 90.28 95.813 90.28C91.0343 90.28 86.5117 89.5973 82.245 88.232C77.9783 86.7813 74.3943 84.4347 71.493 81.192C68.677 77.9493 66.885 73.5547 66.117 68.008L74.693 64.936C75.1197 70.3973 76.3143 74.664 78.277 77.736C80.325 80.7227 82.8423 82.8133 85.829 84.008C88.901 85.2027 92.1863 85.8 95.685 85.8ZM169.352 29.864H172.936V61.736H169.352L166.536 51.368C166.28 50.344 165.981 49.6187 165.64 49.192C165.384 48.68 164.829 48.3813 163.976 48.296C163.123 48.1253 161.672 48.04 159.624 48.04H146.44V78.248C146.44 81.1493 146.568 82.8987 146.824 83.496C147.08 84.008 147.891 84.3493 149.256 84.52L158.856 85.416V89H121.224V85.416L128.264 84.52C129.629 84.3493 130.44 84.008 130.696 83.496C130.952 82.8987 131.08 81.1493 131.08 78.248V12.712C131.08 9.81066 130.952 8.10399 130.696 7.592C130.44 6.99466 129.629 6.61066 128.264 6.43999L121.224 5.544V1.96H181.896V23.976H178.312L174.216 9.768C173.96 8.744 173.661 8.01866 173.32 7.592C173.064 7.08 172.509 6.78133 171.656 6.696C170.803 6.52533 169.352 6.43999 167.304 6.43999H146.44V43.56H159.624C161.672 43.56 163.123 43.5173 163.976 43.432C164.829 43.2613 165.384 42.9627 165.64 42.536C165.981 42.024 166.28 41.256 166.536 40.232L169.352 29.864Z" fill="white"/>
<path d="M195.336 39.592V39.16H197.88V44.232C198.189 43.7733 198.541 43.4427 198.936 43.24C199.331 43.0267 199.757 42.92 200.216 42.92C201.133 42.92 201.843 43.2667 202.344 43.96C202.856 44.6533 203.112 45.624 203.112 46.872V47.192C203.112 48.408 202.819 49.3733 202.232 50.088C201.656 50.8027 200.845 51.16 199.8 51.16C198.968 51.16 198.285 50.888 197.752 50.344C197.603 50.4293 197.464 50.536 197.336 50.664C197.208 50.792 197.08 50.9307 196.952 51.08H196.568V40.456C196.568 40.0827 196.552 39.864 196.52 39.8C196.488 39.736 196.387 39.6933 196.216 39.672L195.336 39.592ZM200.008 43.496C199.677 43.496 199.331 43.6027 198.968 43.816C198.616 44.0293 198.253 44.4613 197.88 45.112V49.688C198.339 50.3173 198.947 50.632 199.704 50.632C200.397 50.632 200.899 50.3707 201.208 49.848C201.517 49.3147 201.672 48.5893 201.672 47.672V46.392C201.672 45.3893 201.528 44.6587 201.24 44.2C200.952 43.7307 200.541 43.496 200.008 43.496ZM206.291 51.8C206.056 52.4507 205.8 52.9787 205.523 53.384C205.245 53.8 204.915 54.0987 204.531 54.28C204.147 54.472 203.667 54.568 203.091 54.568V53.288C203.859 53.288 204.44 53.1653 204.835 52.92C205.229 52.6853 205.544 52.2427 205.779 51.592L205.987 51H205.523L203.171 44.28C203.064 43.9707 202.984 43.7893 202.931 43.736C202.877 43.672 202.765 43.6293 202.595 43.608L201.779 43.512V43.08H205.427V43.512L204.611 43.608C204.461 43.6187 204.376 43.656 204.355 43.72C204.333 43.784 204.376 43.9707 204.483 44.28L206.403 49.816L208.339 44.264C208.435 43.9547 208.472 43.7733 208.451 43.72C208.44 43.6667 208.355 43.6293 208.195 43.608L207.363 43.512V43.08H210.291V43.512L209.475 43.608C209.315 43.6293 209.208 43.6667 209.155 43.72C209.101 43.7733 209.021 43.9547 208.915 44.264L206.291 51.8Z" fill="white"/>
<path d="M229.14 43.671C230.569 43.671 231.721 43.319 232.596 42.615C233.492 41.911 233.94 40.8763 233.94 39.511C233.94 38.423 233.609 37.5163 232.948 36.791C232.287 36.0443 231.135 35.447 229.492 34.999L227.284 34.359C225.663 33.911 224.425 33.1537 223.572 32.087C222.719 31.0203 222.292 29.719 222.292 28.183C222.292 27.159 222.527 26.199 222.996 25.303C223.487 24.407 224.223 23.6817 225.204 23.127C226.207 22.5723 227.476 22.295 229.012 22.295C230.719 22.295 232.095 22.615 233.14 23.255C234.185 23.8737 234.911 24.6843 235.316 25.687C235.721 26.6897 235.817 27.767 235.604 28.919L232.916 29.495C233.193 27.511 232.991 25.9857 232.308 24.919C231.647 23.8523 230.495 23.319 228.852 23.319C227.551 23.319 226.527 23.671 225.78 24.375C225.033 25.0577 224.66 26.0603 224.66 27.383C224.66 28.4283 224.959 29.3243 225.556 30.071C226.153 30.7963 227.209 31.3723 228.724 31.799L230.932 32.439C234.495 33.4203 236.276 35.5003 236.276 38.679C236.276 39.8097 236.009 40.8337 235.476 41.751C234.964 42.647 234.175 43.3617 233.108 43.895C232.063 44.4283 230.74 44.695 229.14 44.695C228.031 44.695 226.964 44.5243 225.94 44.183C224.937 43.8417 224.073 43.255 223.348 42.423C222.644 41.591 222.175 40.439 221.94 38.967L223.86 38.327C223.967 39.735 224.276 40.823 224.788 41.591C225.3 42.359 225.94 42.903 226.708 43.223C227.476 43.5217 228.287 43.671 229.14 43.671ZM242.479 29.239C241.306 29.239 240.389 29.7297 239.727 30.711C239.087 31.671 238.767 33.2603 238.767 35.479V37.399C238.767 39.639 239.087 41.2497 239.727 42.231C240.389 43.191 241.455 43.671 242.927 43.671C243.93 43.671 244.741 43.415 245.359 42.903C245.978 42.391 246.394 41.5057 246.607 40.247L248.303 40.727C247.919 42.1777 247.215 43.2017 246.191 43.799C245.167 44.3963 244.026 44.695 242.767 44.695C240.463 44.695 238.735 43.9803 237.583 42.551C236.453 41.1003 235.887 39.1697 235.887 36.759V36.119C235.887 33.7297 236.453 31.8203 237.583 30.391C238.714 28.9403 240.346 28.215 242.479 28.215C243.845 28.215 244.975 28.4817 245.871 29.015C246.789 29.5483 247.439 30.2737 247.823 31.191C248.207 32.087 248.314 33.079 248.143 34.167L245.615 34.551C245.85 32.8443 245.69 31.5323 245.135 30.615C244.602 29.6977 243.717 29.239 242.479 29.239ZM246.894 29.399V28.535H251.822V31.095C252.568 30.0923 253.315 29.367 254.062 28.919C254.83 28.4497 255.608 28.215 256.398 28.215C257.08 28.215 257.72 28.4177 258.318 28.823C258.915 29.2283 259.416 29.879 259.822 30.775L257.742 32.023C257.422 31.255 257.059 30.7217 256.654 30.423C256.248 30.1243 255.8 29.975 255.31 29.975C254.776 29.975 254.243 30.1457 253.71 30.487C253.198 30.8283 252.622 31.4683 251.982 32.407V41.783C251.982 42.5297 252.014 42.9777 252.078 43.127C252.142 43.255 252.344 43.3297 252.686 43.351L255.086 43.543V44.375H246.894V43.543L248.654 43.351C248.995 43.3083 249.198 43.223 249.262 43.095C249.326 42.967 249.358 42.5297 249.358 41.783V31.127C249.358 30.3803 249.326 29.943 249.262 29.815C249.198 29.687 248.995 29.6017 248.654 29.559L246.894 29.399ZM270.241 40.727C269.857 42.1777 269.131 43.2017 268.065 43.799C267.019 44.3963 265.857 44.695 264.577 44.695C262.209 44.695 260.438 43.9803 259.265 42.551C258.091 41.1003 257.505 39.1697 257.505 36.759V36.119C257.505 33.7297 258.07 31.8203 259.201 30.391C260.331 28.9403 261.974 28.215 264.129 28.215C265.281 28.215 266.326 28.4497 267.265 28.919C268.225 29.3883 268.982 30.0817 269.537 30.999C270.113 31.9163 270.401 33.0577 270.401 34.423C270.401 35.063 270.337 35.735 270.209 36.439H260.385V37.399C260.385 39.639 260.726 41.2497 261.409 42.231C262.113 43.191 263.243 43.671 264.801 43.671C265.782 43.671 266.593 43.415 267.233 42.903C267.894 42.391 268.331 41.5057 268.545 40.247L270.241 40.727ZM264.129 29.239C262.87 29.239 261.931 29.719 261.313 30.679C260.694 31.639 260.385 33.2177 260.385 35.415H267.585V35.319C267.627 35.0417 267.659 34.775 267.681 34.519C267.702 34.2417 267.713 33.9963 267.713 33.783C267.713 32.183 267.382 31.031 266.721 30.327C266.059 29.6017 265.195 29.239 264.129 29.239ZM282.893 40.727C282.509 42.1777 281.784 43.2017 280.717 43.799C279.672 44.3963 278.509 44.695 277.229 44.695C274.861 44.695 273.091 43.9803 271.917 42.551C270.744 41.1003 270.157 39.1697 270.157 36.759V36.119C270.157 33.7297 270.723 31.8203 271.853 30.391C272.984 28.9403 274.627 28.215 276.781 28.215C277.933 28.215 278.979 28.4497 279.917 28.919C280.877 29.3883 281.635 30.0817 282.189 30.999C282.765 31.9163 283.053 33.0577 283.053 34.423C283.053 35.063 282.989 35.735 282.861 36.439H273.037V37.399C273.037 39.639 273.379 41.2497 274.061 42.231C274.765 43.191 275.896 43.671 277.453 43.671C278.435 43.671 279.245 43.415 279.885 42.903C280.547 42.391 280.984 41.5057 281.197 40.247L282.893 40.727ZM276.781 29.239C275.523 29.239 274.584 29.719 273.965 30.679C273.347 31.639 273.037 33.2177 273.037 35.415H280.237V35.319C280.28 35.0417 280.312 34.775 280.333 34.519C280.355 34.2417 280.365 33.9963 280.365 33.783C280.365 32.183 280.035 31.031 279.373 30.327C278.712 29.6017 277.848 29.239 276.781 29.239ZM299.802 43.543V44.375H292.25V43.543L294.01 43.351C294.351 43.3083 294.554 43.223 294.618 43.095C294.682 42.967 294.714 42.5297 294.714 41.783V33.815C294.714 32.2363 294.458 31.127 293.946 30.487C293.434 29.8257 292.698 29.495 291.738 29.495C291.034 29.495 290.255 29.7083 289.402 30.135C288.548 30.5617 287.748 31.3937 287.002 32.631V41.783C287.002 42.5297 287.034 42.967 287.098 43.095C287.162 43.223 287.364 43.3083 287.706 43.351L289.466 43.543V44.375H281.914V43.543L283.674 43.351C284.015 43.3083 284.218 43.223 284.282 43.095C284.346 42.967 284.378 42.5297 284.378 41.783V31.127C284.378 30.3803 284.346 29.943 284.282 29.815C284.218 29.687 284.015 29.6017 283.674 29.559L281.914 29.399V28.535H286.842V31.127C287.61 30.103 288.474 29.367 289.434 28.919C290.415 28.4497 291.396 28.215 292.378 28.215C293.956 28.215 295.172 28.7057 296.026 29.687C296.9 30.647 297.338 32.0123 297.338 33.783V41.783C297.338 42.5297 297.37 42.967 297.434 43.095C297.498 43.223 297.7 43.3083 298.042 43.351L299.802 43.543Z" fill="white"/>
<path d="M223.68 50.461C223.563 50.701 223.427 50.8797 223.272 50.997C223.123 51.109 222.963 51.165 222.792 51.165C222.584 51.165 222.429 51.093 222.328 50.949C222.227 50.7997 222.211 50.5463 222.28 50.189L222.6 48.605C222.691 48.1783 222.683 47.869 222.576 47.677C222.469 47.485 222.299 47.389 222.064 47.389C221.84 47.389 221.592 47.477 221.32 47.653C221.048 47.829 220.763 48.1623 220.464 48.653L220.032 51.125H219.552L220.128 47.861C220.16 47.6743 220.171 47.565 220.16 47.533C220.149 47.4957 220.104 47.4743 220.024 47.469L219.584 47.429L219.624 47.229H220.72L220.56 48.117C220.811 47.7597 221.069 47.509 221.336 47.365C221.603 47.221 221.867 47.149 222.128 47.149C222.523 47.149 222.803 47.2823 222.968 47.549C223.139 47.8157 223.179 48.165 223.088 48.597L222.736 50.269C222.693 50.4717 222.675 50.6343 222.68 50.757C222.685 50.8743 222.747 50.933 222.864 50.933C222.955 50.933 223.051 50.8823 223.152 50.781C223.253 50.6797 223.341 50.5143 223.416 50.285L223.68 50.461ZM226.73 49.189L226.698 49.373C226.597 49.9543 226.381 50.405 226.05 50.725C225.725 51.045 225.309 51.205 224.802 51.205C224.44 51.205 224.141 51.1117 223.906 50.925C223.677 50.7383 223.52 50.4903 223.434 50.181C223.349 49.8717 223.338 49.5303 223.402 49.157L223.434 48.973C223.536 48.3917 223.749 47.9437 224.074 47.629C224.4 47.309 224.813 47.149 225.314 47.149C225.688 47.149 225.989 47.2423 226.218 47.429C226.448 47.6157 226.605 47.8637 226.69 48.173C226.781 48.4823 226.794 48.821 226.73 49.189ZM226.21 49.013C226.296 48.5063 226.256 48.1063 226.09 47.813C225.93 47.5197 225.658 47.373 225.274 47.373C224.97 47.373 224.704 47.4877 224.474 47.717C224.25 47.941 224.093 48.3197 224.002 48.853L223.922 49.333C223.837 49.8343 223.874 50.2343 224.034 50.533C224.2 50.8317 224.472 50.981 224.85 50.981C225.16 50.981 225.429 50.8663 225.658 50.637C225.888 50.4077 226.045 50.0263 226.13 49.493L226.21 49.013ZM228.825 50.309C228.675 50.6503 228.507 50.885 228.321 51.013C228.134 51.141 227.942 51.205 227.745 51.205C227.377 51.205 227.131 51.077 227.009 50.821C226.891 50.565 226.87 50.2157 226.945 49.773L227.281 47.845C227.313 47.669 227.323 47.565 227.313 47.533C227.302 47.4957 227.254 47.4743 227.169 47.469L226.729 47.429L226.769 47.229H227.385L227.585 46.093L228.089 45.997L227.873 47.229H229.185L229.145 47.469H227.825L227.393 49.933C227.323 50.333 227.329 50.605 227.409 50.749C227.489 50.893 227.606 50.965 227.761 50.965C227.899 50.965 228.025 50.909 228.137 50.797C228.254 50.6797 228.366 50.4663 228.473 50.157L228.825 50.309Z" fill="white"/>
<path d="M223.68 50.461C223.563 50.701 223.427 50.8797 223.272 50.997C223.123 51.109 222.963 51.165 222.792 51.165C222.584 51.165 222.429 51.093 222.328 50.949C222.227 50.7997 222.211 50.5463 222.28 50.189L222.6 48.605C222.691 48.1783 222.683 47.869 222.576 47.677C222.469 47.485 222.299 47.389 222.064 47.389C221.84 47.389 221.592 47.477 221.32 47.653C221.048 47.829 220.763 48.1623 220.464 48.653L220.032 51.125H219.552L220.128 47.861C220.16 47.6743 220.171 47.565 220.16 47.533C220.149 47.4957 220.104 47.4743 220.024 47.469L219.584 47.429L219.624 47.229H220.72L220.56 48.117C220.811 47.7597 221.069 47.509 221.336 47.365C221.603 47.221 221.867 47.149 222.128 47.149C222.523 47.149 222.803 47.2823 222.968 47.549C223.139 47.8157 223.179 48.165 223.088 48.597L222.736 50.269C222.693 50.4717 222.675 50.6343 222.68 50.757C222.685 50.8743 222.747 50.933 222.864 50.933C222.955 50.933 223.051 50.8823 223.152 50.781C223.253 50.6797 223.341 50.5143 223.416 50.285L223.68 50.461ZM226.73 49.189L226.698 49.373C226.597 49.9543 226.381 50.405 226.05 50.725C225.725 51.045 225.309 51.205 224.802 51.205C224.44 51.205 224.141 51.1117 223.906 50.925C223.677 50.7383 223.52 50.4903 223.434 50.181C223.349 49.8717 223.338 49.5303 223.402 49.157L223.434 48.973C223.536 48.3917 223.749 47.9437 224.074 47.629C224.4 47.309 224.813 47.149 225.314 47.149C225.688 47.149 225.989 47.2423 226.218 47.429C226.448 47.6157 226.605 47.8637 226.69 48.173C226.781 48.4823 226.794 48.821 226.73 49.189ZM226.21 49.013C226.296 48.5063 226.256 48.1063 226.09 47.813C225.93 47.5197 225.658 47.373 225.274 47.373C224.97 47.373 224.704 47.4877 224.474 47.717C224.25 47.941 224.093 48.3197 224.002 48.853L223.922 49.333C223.837 49.8343 223.874 50.2343 224.034 50.533C224.2 50.8317 224.472 50.981 224.85 50.981C225.16 50.981 225.429 50.8663 225.658 50.637C225.888 50.4077 226.045 50.0263 226.13 49.493L226.21 49.013ZM228.825 50.309C228.675 50.6503 228.507 50.885 228.321 51.013C228.134 51.141 227.942 51.205 227.745 51.205C227.377 51.205 227.131 51.077 227.009 50.821C226.891 50.565 226.87 50.2157 226.945 49.773L227.281 47.845C227.313 47.669 227.323 47.565 227.313 47.533C227.302 47.4957 227.254 47.4743 227.169 47.469L226.729 47.429L226.769 47.229H227.385L227.585 46.093L228.089 45.997L227.873 47.229H229.185L229.145 47.469H227.825L227.393 49.933C227.323 50.333 227.329 50.605 227.409 50.749C227.489 50.893 227.606 50.965 227.761 50.965C227.899 50.965 228.025 50.909 228.137 50.797C228.254 50.6797 228.366 50.4663 228.473 50.157L228.825 50.309Z" fill="#FFC400" fill-opacity="0.5"/>
<path d="M238.664 68.509C237.021 68.509 235.581 68.221 234.344 67.645C233.107 67.0477 232.147 66.2157 231.464 65.149C230.781 64.0823 230.44 62.8343 230.44 61.405H233.8C233.821 62.2157 234.013 62.9623 234.376 63.645C234.76 64.3063 235.304 64.8397 236.008 65.245C236.733 65.629 237.619 65.821 238.664 65.821C239.56 65.821 240.328 65.6717 240.968 65.373C241.629 65.0743 242.131 64.669 242.472 64.157C242.813 63.6237 242.984 63.0157 242.984 62.333C242.984 61.5437 242.803 60.893 242.44 60.381C242.077 59.869 241.587 59.453 240.968 59.133C240.371 58.7917 239.667 58.493 238.856 58.237C238.067 57.981 237.235 57.7037 236.36 57.405C234.589 56.829 233.267 56.0823 232.392 55.165C231.539 54.2477 231.112 53.053 231.112 51.581C231.112 50.3223 231.411 49.2343 232.008 48.317C232.605 47.3783 233.437 46.653 234.504 46.141C235.592 45.6077 236.872 45.341 238.344 45.341C239.795 45.341 241.064 45.6077 242.152 46.141C243.24 46.6743 244.093 47.4103 244.712 48.349C245.331 49.2877 245.64 50.3863 245.64 51.645H242.248C242.248 51.069 242.099 50.5037 241.8 49.949C241.501 49.3943 241.053 48.9463 240.456 48.605C239.859 48.2423 239.123 48.061 238.248 48.061C237.523 48.0397 236.872 48.157 236.296 48.413C235.72 48.669 235.272 49.0423 234.952 49.533C234.632 50.0237 234.472 50.6103 234.472 51.293C234.472 51.9757 234.611 52.5303 234.888 52.957C235.187 53.3623 235.613 53.7143 236.168 54.013C236.723 54.3117 237.363 54.589 238.088 54.845C238.835 55.0797 239.656 55.3463 240.552 55.645C241.661 56.0077 242.643 56.4557 243.496 56.989C244.371 57.501 245.053 58.173 245.544 59.005C246.056 59.8157 246.312 60.861 246.312 62.141C246.312 63.2503 246.024 64.285 245.448 65.245C244.872 66.205 244.019 66.9943 242.888 67.613C241.757 68.2103 240.349 68.509 238.664 68.509ZM246.757 68.125V45.085H249.957V54.621C250.491 53.6823 251.227 52.9463 252.165 52.413C253.125 51.8797 254.181 51.613 255.333 51.613C256.613 51.613 257.712 51.8797 258.629 52.413C259.547 52.925 260.251 53.7037 260.741 54.749C261.232 55.773 261.477 57.0637 261.477 58.621V68.125H258.309V58.941C258.309 57.4477 257.989 56.317 257.349 55.549C256.709 54.7597 255.76 54.365 254.501 54.365C253.648 54.365 252.88 54.5677 252.197 54.973C251.515 55.3783 250.971 55.9757 250.565 56.765C250.16 57.533 249.957 58.4717 249.957 59.581V68.125H246.757ZM267.714 68.509C266.391 68.509 265.292 68.285 264.418 67.837C263.543 67.389 262.892 66.7917 262.466 66.045C262.039 65.277 261.826 64.4557 261.826 63.581C261.826 62.5143 262.103 61.6077 262.658 60.861C263.212 60.093 264.002 59.5063 265.026 59.101C266.05 58.6957 267.276 58.493 268.706 58.493H272.898C272.898 57.5543 272.759 56.7757 272.482 56.157C272.204 55.5383 271.788 55.0797 271.234 54.781C270.7 54.461 270.018 54.301 269.186 54.301C268.226 54.301 267.404 54.5357 266.722 55.005C266.039 55.453 265.612 56.125 265.442 57.021H262.242C262.37 55.8903 262.754 54.9303 263.394 54.141C264.055 53.3303 264.898 52.7117 265.922 52.285C266.946 51.837 268.034 51.613 269.186 51.613C270.7 51.613 271.97 51.8797 272.994 52.413C274.018 52.9463 274.786 53.7037 275.298 54.685C275.831 55.645 276.098 56.797 276.098 58.141V68.125H273.314L273.058 65.405C272.823 65.8317 272.546 66.237 272.226 66.621C271.906 67.005 271.522 67.3357 271.074 67.613C270.647 67.8903 270.146 68.1037 269.57 68.253C269.015 68.4237 268.396 68.509 267.714 68.509ZM268.322 65.917C269.004 65.917 269.623 65.7783 270.178 65.501C270.732 65.2237 271.202 64.8503 271.586 64.381C271.991 63.8903 272.29 63.3463 272.482 62.749C272.695 62.1303 272.812 61.501 272.834 60.861V60.765H269.026C268.108 60.765 267.362 60.8823 266.786 61.117C266.231 61.3303 265.826 61.629 265.57 62.013C265.314 62.397 265.186 62.845 265.186 63.357C265.186 63.8903 265.303 64.349 265.538 64.733C265.794 65.0957 266.156 65.3837 266.626 65.597C267.095 65.8103 267.66 65.917 268.322 65.917ZM276.982 68.125V51.997H279.862L280.15 55.037C280.513 54.3117 280.982 53.7037 281.558 53.213C282.134 52.701 282.806 52.3063 283.574 52.029C284.364 51.7517 285.26 51.613 286.262 51.613V55.005H285.11C284.449 55.005 283.82 55.0903 283.222 55.261C282.625 55.4103 282.092 55.677 281.622 56.061C281.174 56.445 280.822 56.9677 280.566 57.629C280.31 58.2903 280.182 59.1117 280.182 60.093V68.125H276.982ZM292.828 68.509C291.292 68.509 289.927 68.157 288.732 67.453C287.538 66.749 286.599 65.7677 285.916 64.509C285.255 63.2503 284.924 61.789 284.924 60.125C284.924 58.4183 285.255 56.9357 285.916 55.677C286.599 54.397 287.538 53.405 288.732 52.701C289.927 51.9757 291.314 51.613 292.892 51.613C294.471 51.613 295.826 51.965 296.956 52.669C298.087 53.373 298.962 54.3117 299.58 55.485C300.199 56.637 300.508 57.917 300.508 59.325C300.508 59.5383 300.498 59.773 300.476 60.029C300.476 60.2637 300.466 60.5303 300.444 60.829H287.26V58.557H297.308C297.244 57.213 296.796 56.1677 295.964 55.421C295.132 54.653 294.098 54.269 292.86 54.269C291.986 54.269 291.186 54.4717 290.46 54.877C289.735 55.261 289.148 55.837 288.7 56.605C288.274 57.3517 288.06 58.301 288.06 59.453V60.349C288.06 61.5437 288.274 62.557 288.7 63.389C289.148 64.1997 289.735 64.8183 290.46 65.245C291.186 65.6503 291.975 65.853 292.828 65.853C293.852 65.853 294.695 65.629 295.356 65.181C296.018 64.733 296.508 64.125 296.828 63.357H300.028C299.751 64.3383 299.282 65.2237 298.62 66.013C297.959 66.781 297.138 67.389 296.156 67.837C295.196 68.285 294.087 68.509 292.828 68.509Z" fill="white"/>
<path d="M238.664 68.509C237.021 68.509 235.581 68.221 234.344 67.645C233.107 67.0477 232.147 66.2157 231.464 65.149C230.781 64.0823 230.44 62.8343 230.44 61.405H233.8C233.821 62.2157 234.013 62.9623 234.376 63.645C234.76 64.3063 235.304 64.8397 236.008 65.245C236.733 65.629 237.619 65.821 238.664 65.821C239.56 65.821 240.328 65.6717 240.968 65.373C241.629 65.0743 242.131 64.669 242.472 64.157C242.813 63.6237 242.984 63.0157 242.984 62.333C242.984 61.5437 242.803 60.893 242.44 60.381C242.077 59.869 241.587 59.453 240.968 59.133C240.371 58.7917 239.667 58.493 238.856 58.237C238.067 57.981 237.235 57.7037 236.36 57.405C234.589 56.829 233.267 56.0823 232.392 55.165C231.539 54.2477 231.112 53.053 231.112 51.581C231.112 50.3223 231.411 49.2343 232.008 48.317C232.605 47.3783 233.437 46.653 234.504 46.141C235.592 45.6077 236.872 45.341 238.344 45.341C239.795 45.341 241.064 45.6077 242.152 46.141C243.24 46.6743 244.093 47.4103 244.712 48.349C245.331 49.2877 245.64 50.3863 245.64 51.645H242.248C242.248 51.069 242.099 50.5037 241.8 49.949C241.501 49.3943 241.053 48.9463 240.456 48.605C239.859 48.2423 239.123 48.061 238.248 48.061C237.523 48.0397 236.872 48.157 236.296 48.413C235.72 48.669 235.272 49.0423 234.952 49.533C234.632 50.0237 234.472 50.6103 234.472 51.293C234.472 51.9757 234.611 52.5303 234.888 52.957C235.187 53.3623 235.613 53.7143 236.168 54.013C236.723 54.3117 237.363 54.589 238.088 54.845C238.835 55.0797 239.656 55.3463 240.552 55.645C241.661 56.0077 242.643 56.4557 243.496 56.989C244.371 57.501 245.053 58.173 245.544 59.005C246.056 59.8157 246.312 60.861 246.312 62.141C246.312 63.2503 246.024 64.285 245.448 65.245C244.872 66.205 244.019 66.9943 242.888 67.613C241.757 68.2103 240.349 68.509 238.664 68.509ZM246.757 68.125V45.085H249.957V54.621C250.491 53.6823 251.227 52.9463 252.165 52.413C253.125 51.8797 254.181 51.613 255.333 51.613C256.613 51.613 257.712 51.8797 258.629 52.413C259.547 52.925 260.251 53.7037 260.741 54.749C261.232 55.773 261.477 57.0637 261.477 58.621V68.125H258.309V58.941C258.309 57.4477 257.989 56.317 257.349 55.549C256.709 54.7597 255.76 54.365 254.501 54.365C253.648 54.365 252.88 54.5677 252.197 54.973C251.515 55.3783 250.971 55.9757 250.565 56.765C250.16 57.533 249.957 58.4717 249.957 59.581V68.125H246.757ZM267.714 68.509C266.391 68.509 265.292 68.285 264.418 67.837C263.543 67.389 262.892 66.7917 262.466 66.045C262.039 65.277 261.826 64.4557 261.826 63.581C261.826 62.5143 262.103 61.6077 262.658 60.861C263.212 60.093 264.002 59.5063 265.026 59.101C266.05 58.6957 267.276 58.493 268.706 58.493H272.898C272.898 57.5543 272.759 56.7757 272.482 56.157C272.204 55.5383 271.788 55.0797 271.234 54.781C270.7 54.461 270.018 54.301 269.186 54.301C268.226 54.301 267.404 54.5357 266.722 55.005C266.039 55.453 265.612 56.125 265.442 57.021H262.242C262.37 55.8903 262.754 54.9303 263.394 54.141C264.055 53.3303 264.898 52.7117 265.922 52.285C266.946 51.837 268.034 51.613 269.186 51.613C270.7 51.613 271.97 51.8797 272.994 52.413C274.018 52.9463 274.786 53.7037 275.298 54.685C275.831 55.645 276.098 56.797 276.098 58.141V68.125H273.314L273.058 65.405C272.823 65.8317 272.546 66.237 272.226 66.621C271.906 67.005 271.522 67.3357 271.074 67.613C270.647 67.8903 270.146 68.1037 269.57 68.253C269.015 68.4237 268.396 68.509 267.714 68.509ZM268.322 65.917C269.004 65.917 269.623 65.7783 270.178 65.501C270.732 65.2237 271.202 64.8503 271.586 64.381C271.991 63.8903 272.29 63.3463 272.482 62.749C272.695 62.1303 272.812 61.501 272.834 60.861V60.765H269.026C268.108 60.765 267.362 60.8823 266.786 61.117C266.231 61.3303 265.826 61.629 265.57 62.013C265.314 62.397 265.186 62.845 265.186 63.357C265.186 63.8903 265.303 64.349 265.538 64.733C265.794 65.0957 266.156 65.3837 266.626 65.597C267.095 65.8103 267.66 65.917 268.322 65.917ZM276.982 68.125V51.997H279.862L280.15 55.037C280.513 54.3117 280.982 53.7037 281.558 53.213C282.134 52.701 282.806 52.3063 283.574 52.029C284.364 51.7517 285.26 51.613 286.262 51.613V55.005H285.11C284.449 55.005 283.82 55.0903 283.222 55.261C282.625 55.4103 282.092 55.677 281.622 56.061C281.174 56.445 280.822 56.9677 280.566 57.629C280.31 58.2903 280.182 59.1117 280.182 60.093V68.125H276.982ZM292.828 68.509C291.292 68.509 289.927 68.157 288.732 67.453C287.538 66.749 286.599 65.7677 285.916 64.509C285.255 63.2503 284.924 61.789 284.924 60.125C284.924 58.4183 285.255 56.9357 285.916 55.677C286.599 54.397 287.538 53.405 288.732 52.701C289.927 51.9757 291.314 51.613 292.892 51.613C294.471 51.613 295.826 51.965 296.956 52.669C298.087 53.373 298.962 54.3117 299.58 55.485C300.199 56.637 300.508 57.917 300.508 59.325C300.508 59.5383 300.498 59.773 300.476 60.029C300.476 60.2637 300.466 60.5303 300.444 60.829H287.26V58.557H297.308C297.244 57.213 296.796 56.1677 295.964 55.421C295.132 54.653 294.098 54.269 292.86 54.269C291.986 54.269 291.186 54.4717 290.46 54.877C289.735 55.261 289.148 55.837 288.7 56.605C288.274 57.3517 288.06 58.301 288.06 59.453V60.349C288.06 61.5437 288.274 62.557 288.7 63.389C289.148 64.1997 289.735 64.8183 290.46 65.245C291.186 65.6503 291.975 65.853 292.828 65.853C293.852 65.853 294.695 65.629 295.356 65.181C296.018 64.733 296.508 64.125 296.828 63.357H300.028C299.751 64.3383 299.282 65.2237 298.62 66.013C297.959 66.781 297.138 67.389 296.156 67.837C295.196 68.285 294.087 68.509 292.828 68.509Z" fill="#FF0000" fill-opacity="0.5"/>
</svg>
