<svg width="527" height="98" viewBox="0 0 527 98" fill="none" xmlns="http://www.w3.org/2000/svg">
<path d="M65.28 73.984H68.864V96H5.504V92.416L12.544 91.52C13.9093 91.3493 14.72 91.008 14.976 90.496C15.232 89.8987 15.36 88.1493 15.36 85.248V19.712C15.36 16.8107 15.232 15.104 14.976 14.592C14.72 13.9947 13.9093 13.6107 12.544 13.44L5.504 12.544V8.96H67.584V30.976H64L59.904 16.768C59.648 15.744 59.3493 15.0187 59.008 14.592C58.752 14.08 58.1973 13.7813 57.344 13.696C56.4907 13.5253 55.04 13.44 52.992 13.44H30.72V49.792H45.312C47.36 49.792 48.8107 49.7493 49.664 49.664C50.5173 49.4933 51.072 49.1947 51.328 48.768C51.6693 48.256 51.968 47.488 52.224 46.464L55.04 36.096H58.624V67.968H55.04L52.224 57.6C51.968 56.576 51.6693 55.8507 51.328 55.424C51.072 54.912 50.5173 54.6133 49.664 54.528C48.8107 54.3573 47.36 54.272 45.312 54.272H30.72V91.52H54.272C56.32 91.52 57.7707 91.4773 58.624 91.392C59.4773 91.2213 60.032 90.9227 60.288 90.496C60.6293 89.984 60.928 89.216 61.184 88.192L65.28 73.984ZM95.685 92.8C100.805 92.8 105.029 91.6053 108.357 89.216C111.77 86.7413 113.477 82.9013 113.477 77.696C113.477 73.856 112.325 70.656 110.021 68.096C107.802 65.536 103.792 63.4027 97.989 61.696L86.085 58.112C80.1117 56.32 75.5037 53.248 72.261 48.896C69.1037 44.4587 67.525 38.9547 67.525 32.384C67.525 28.032 68.5063 23.9787 70.469 20.224C72.517 16.4693 75.589 13.44 79.685 11.136C83.8663 8.83199 89.1143 7.67999 95.429 7.67999C102.341 7.67999 107.93 8.95999 112.197 11.52C116.464 13.9947 119.45 17.2373 121.157 21.248C122.864 25.2587 123.29 29.568 122.437 34.176L107.717 36.864C109.082 28.928 108.485 22.8267 105.925 18.56C103.45 14.2933 99.397 12.16 93.765 12.16C89.413 12.16 85.9143 13.44 83.269 16C80.709 18.56 79.429 22.2293 79.429 27.008C79.429 30.9333 80.5383 34.3893 82.757 37.376C85.061 40.3627 88.8157 42.6667 94.021 44.288L105.925 47.872C112.41 49.7493 117.274 52.608 120.517 56.448C123.76 60.2027 125.381 65.4507 125.381 72.192C125.381 76.9707 124.272 81.28 122.053 85.12C119.92 88.8747 116.634 91.8613 112.197 94.08C107.845 96.2133 102.384 97.28 95.813 97.28C91.0343 97.28 86.5117 96.5973 82.245 95.232C77.9783 93.7813 74.3943 91.4347 71.493 88.192C68.677 84.9493 66.885 80.5547 66.117 75.008L74.693 71.936C75.1197 77.3973 76.3143 81.664 78.277 84.736C80.325 87.7227 82.8423 89.8133 85.829 91.008C88.901 92.2027 92.1863 92.8 95.685 92.8ZM194.44 92.416V96H160.008V92.416L167.048 91.52C168.413 91.3493 169.224 91.008 169.48 90.496C169.736 89.8987 169.864 88.1493 169.864 85.248V35.584H143.24V85.248C143.24 88.1493 143.368 89.8987 143.624 90.496C143.88 91.008 144.691 91.3493 146.056 91.52L153.096 92.416V96H118.664V92.416L125.704 91.52C127.069 91.3493 127.88 91.008 128.136 90.496C128.392 89.8987 128.52 88.1493 128.52 85.248V41.856C128.52 38.9547 128.392 37.248 128.136 36.736C127.88 36.1387 127.069 35.7547 125.704 35.584L118.664 34.688V31.104H128.52V26.752C128.52 22.2293 129.416 17.92 131.208 13.824C133 9.72799 135.944 6.39999 140.04 3.84C144.221 1.27999 149.853 -7.62939e-06 156.936 -7.62939e-06C162.909 -7.62939e-06 167.944 0.93866 172.04 2.81599C176.136 4.608 179.165 6.99733 181.128 9.98399C183.091 12.8853 183.773 16.0853 183.176 19.584L169.096 21.632C170.035 15.5733 169.352 11.2213 167.048 8.576C164.829 5.84533 161.459 4.48 156.936 4.48C154.205 4.48 151.773 5.07733 149.64 6.272C147.592 7.38133 146.013 9.38666 144.904 12.288C143.795 15.104 143.24 19.072 143.24 24.192V31.104H184.584V85.248C184.584 88.1493 184.712 89.8987 184.968 90.496C185.224 91.008 186.035 91.3493 187.4 91.52L194.44 92.416ZM258.166 92.416V96H223.734V92.416L230.774 91.52C232.139 91.3493 232.95 91.008 233.206 90.496C233.462 89.8987 233.59 88.1493 233.59 85.248V52.992C233.59 47.104 232.694 42.8373 230.902 40.192C229.195 37.4613 226.635 36.096 223.222 36.096C221.771 36.096 220.065 36.48 218.102 37.248C216.225 37.9307 214.305 39.2107 212.342 41.088C210.465 42.9653 208.801 45.7387 207.35 49.408V85.248C207.35 88.1493 207.478 89.8987 207.734 90.496C207.99 91.008 208.801 91.3493 210.166 91.52L217.206 92.416V96H182.774V92.416L189.814 91.52C191.179 91.3493 191.99 91.008 192.246 90.496C192.502 89.8987 192.63 88.1493 192.63 85.248V41.856C192.63 38.9547 192.502 37.248 192.246 36.736C191.99 36.1387 191.179 35.7547 189.814 35.584L182.774 34.688V31.104H206.582V42.368C209.057 38.016 212.214 34.8587 216.054 32.896C219.979 30.848 223.905 29.824 227.83 29.824C234.145 29.824 239.137 31.8293 242.806 35.84C246.475 39.8507 248.31 45.5253 248.31 52.864V85.248C248.31 88.1493 248.438 89.8987 248.694 90.496C248.95 91.008 249.761 91.3493 251.126 91.52L258.166 92.416ZM315.772 92.416V96H291.964V85.376C289.575 89.3013 286.887 92.288 283.9 94.336C280.999 96.2987 277.543 97.28 273.532 97.28C266.364 97.28 260.647 94.464 256.38 88.832C252.199 83.1147 250.108 75.136 250.108 64.896V62.336C250.108 52.4373 252.54 44.544 257.404 38.656C262.353 32.768 269.095 29.824 277.628 29.824C282.748 29.824 287.271 31.104 291.196 33.664V12.032C291.196 9.13066 291.068 7.42399 290.812 6.91199C290.556 6.31466 289.745 5.93066 288.38 5.75999L281.34 4.864V1.28H305.916V85.248C305.916 88.1493 306.044 89.8987 306.3 90.496C306.556 91.008 307.367 91.3493 308.732 91.52L315.772 92.416ZM265.852 68.736C265.852 76.672 266.833 82.4747 268.796 86.144C270.759 89.8133 273.447 91.648 276.86 91.648C278.993 91.648 281.212 90.7947 283.516 89.088C285.905 87.296 288.465 83.712 291.196 78.336V39.68C287.953 36.4373 283.985 34.816 279.292 34.816C274.599 34.816 271.185 36.9493 269.052 41.216C266.919 45.3973 265.852 51.1573 265.852 58.496V68.736ZM361.847 80.768C360.311 86.7413 357.452 91.008 353.271 93.568C349.09 96.0427 344.226 97.28 338.679 97.28C328.439 97.28 320.759 94.336 315.639 88.448C310.519 82.4747 307.959 74.5813 307.959 64.768V62.208C307.959 52.3947 310.348 44.544 315.127 38.656C319.991 32.768 326.988 29.824 336.119 29.824C341.239 29.824 345.762 30.848 349.687 32.896C353.698 34.8587 356.812 37.7173 359.031 41.472C361.335 45.2267 362.487 49.792 362.487 55.168C362.487 56.448 362.402 57.8133 362.231 59.264C362.146 60.7147 361.932 62.1653 361.591 63.616H323.703V67.328C323.703 76.3733 324.983 82.9013 327.543 86.912C330.103 90.8373 334.242 92.8 339.959 92.8C343.628 92.8 346.743 91.7333 349.303 89.6C351.863 87.3813 353.314 83.6693 353.655 78.464L361.847 80.768ZM336.119 34.304C331.938 34.304 328.823 36.224 326.775 40.064C324.727 43.904 323.703 50.2613 323.703 59.136H346.871C347.212 57.4293 347.426 55.8507 347.511 54.4C347.682 52.864 347.767 51.456 347.767 50.176C347.767 44.7147 346.7 40.704 344.567 38.144C342.434 35.584 339.618 34.304 336.119 34.304ZM355.229 34.688V31.104H379.037V41.6C384.242 33.7493 390.429 29.824 397.597 29.824C400.242 29.824 402.802 30.6773 405.277 32.384C407.752 34.0053 409.8 37.0773 411.421 41.6L400.029 47.744C398.834 44.2453 397.426 41.8987 395.805 40.704C394.269 39.424 392.605 38.784 390.813 38.784C388.936 38.784 387.101 39.3813 385.309 40.576C383.517 41.7707 381.682 43.9893 379.805 47.232V85.248C379.805 88.1493 379.933 89.8987 380.189 90.496C380.445 91.008 381.256 91.3493 382.621 91.52L392.221 92.416V96H355.229V92.416L362.269 91.52C363.634 91.3493 364.445 91.008 364.701 90.496C364.957 89.8987 365.085 88.1493 365.085 85.248V41.856C365.085 38.9547 364.957 37.248 364.701 36.736C364.445 36.1387 363.634 35.7547 362.269 35.584L355.229 34.688Z" fill="white"/>
<path d="M420.336 46.592V46.16H422.88V51.232C423.189 50.7733 423.541 50.4427 423.936 50.24C424.331 50.0267 424.757 49.92 425.216 49.92C426.133 49.92 426.843 50.2667 427.344 50.96C427.856 51.6533 428.112 52.624 428.112 53.872V54.192C428.112 55.408 427.819 56.3733 427.232 57.088C426.656 57.8027 425.845 58.16 424.8 58.16C423.968 58.16 423.285 57.888 422.752 57.344C422.603 57.4293 422.464 57.536 422.336 57.664C422.208 57.792 422.08 57.9307 421.952 58.08H421.568V47.456C421.568 47.0827 421.552 46.864 421.52 46.8C421.488 46.736 421.387 46.6933 421.216 46.672L420.336 46.592ZM425.008 50.496C424.677 50.496 424.331 50.6027 423.968 50.816C423.616 51.0293 423.253 51.4613 422.88 52.112V56.688C423.339 57.3173 423.947 57.632 424.704 57.632C425.397 57.632 425.899 57.3707 426.208 56.848C426.517 56.3147 426.672 55.5893 426.672 54.672V53.392C426.672 52.3893 426.528 51.6587 426.24 51.2C425.952 50.7307 425.541 50.496 425.008 50.496ZM431.291 58.8C431.056 59.4507 430.8 59.9787 430.523 60.384C430.245 60.8 429.915 61.0987 429.531 61.28C429.147 61.472 428.667 61.568 428.091 61.568V60.288C428.859 60.288 429.44 60.1653 429.835 59.92C430.229 59.6853 430.544 59.2427 430.779 58.592L430.987 58H430.523L428.171 51.28C428.064 50.9707 427.984 50.7893 427.931 50.736C427.877 50.672 427.765 50.6293 427.595 50.608L426.779 50.512V50.08H430.427V50.512L429.611 50.608C429.461 50.6187 429.376 50.656 429.355 50.72C429.333 50.784 429.376 50.9707 429.483 51.28L431.403 56.816L433.339 51.264C433.435 50.9547 433.472 50.7733 433.451 50.72C433.44 50.6667 433.355 50.6293 433.195 50.608L432.363 50.512V50.08H435.291V50.512L434.475 50.608C434.315 50.6293 434.208 50.6667 434.155 50.72C434.101 50.7733 434.021 50.9547 433.915 51.264L431.291 58.8Z" fill="white"/>
<path d="M454.14 50.671C455.569 50.671 456.721 50.319 457.596 49.615C458.492 48.911 458.94 47.8763 458.94 46.511C458.94 45.423 458.609 44.5163 457.948 43.791C457.287 43.0443 456.135 42.447 454.492 41.999L452.284 41.359C450.663 40.911 449.425 40.1537 448.572 39.087C447.719 38.0203 447.292 36.719 447.292 35.183C447.292 34.159 447.527 33.199 447.996 32.303C448.487 31.407 449.223 30.6817 450.204 30.127C451.207 29.5723 452.476 29.295 454.012 29.295C455.719 29.295 457.095 29.615 458.14 30.255C459.185 30.8737 459.911 31.6843 460.316 32.687C460.721 33.6897 460.817 34.767 460.604 35.919L457.916 36.495C458.193 34.511 457.991 32.9857 457.308 31.919C456.647 30.8523 455.495 30.319 453.852 30.319C452.551 30.319 451.527 30.671 450.78 31.375C450.033 32.0577 449.66 33.0603 449.66 34.383C449.66 35.4283 449.959 36.3243 450.556 37.071C451.153 37.7963 452.209 38.3723 453.724 38.799L455.932 39.439C459.495 40.4203 461.276 42.5003 461.276 45.679C461.276 46.8097 461.009 47.8337 460.476 48.751C459.964 49.647 459.175 50.3617 458.108 50.895C457.063 51.4283 455.74 51.695 454.14 51.695C453.031 51.695 451.964 51.5243 450.94 51.183C449.937 50.8417 449.073 50.255 448.348 49.423C447.644 48.591 447.175 47.439 446.94 45.967L448.86 45.327C448.967 46.735 449.276 47.823 449.788 48.591C450.3 49.359 450.94 49.903 451.708 50.223C452.476 50.5217 453.287 50.671 454.14 50.671ZM467.479 36.239C466.306 36.239 465.389 36.7297 464.727 37.711C464.087 38.671 463.767 40.2603 463.767 42.479V44.399C463.767 46.639 464.087 48.2497 464.727 49.231C465.389 50.191 466.455 50.671 467.927 50.671C468.93 50.671 469.741 50.415 470.359 49.903C470.978 49.391 471.394 48.5057 471.607 47.247L473.303 47.727C472.919 49.1777 472.215 50.2017 471.191 50.799C470.167 51.3963 469.026 51.695 467.767 51.695C465.463 51.695 463.735 50.9803 462.583 49.551C461.453 48.1003 460.887 46.1697 460.887 43.759V43.119C460.887 40.7297 461.453 38.8203 462.583 37.391C463.714 35.9403 465.346 35.215 467.479 35.215C468.845 35.215 469.975 35.4817 470.871 36.015C471.789 36.5483 472.439 37.2737 472.823 38.191C473.207 39.087 473.314 40.079 473.143 41.167L470.615 41.551C470.85 39.8443 470.69 38.5323 470.135 37.615C469.602 36.6977 468.717 36.239 467.479 36.239ZM471.894 36.399V35.535H476.822V38.095C477.568 37.0923 478.315 36.367 479.062 35.919C479.83 35.4497 480.608 35.215 481.398 35.215C482.08 35.215 482.72 35.4177 483.318 35.823C483.915 36.2283 484.416 36.879 484.822 37.775L482.742 39.023C482.422 38.255 482.059 37.7217 481.654 37.423C481.248 37.1243 480.8 36.975 480.31 36.975C479.776 36.975 479.243 37.1457 478.71 37.487C478.198 37.8283 477.622 38.4683 476.982 39.407V48.783C476.982 49.5297 477.014 49.9777 477.078 50.127C477.142 50.255 477.344 50.3297 477.686 50.351L480.086 50.543V51.375H471.894V50.543L473.654 50.351C473.995 50.3083 474.198 50.223 474.262 50.095C474.326 49.967 474.358 49.5297 474.358 48.783V38.127C474.358 37.3803 474.326 36.943 474.262 36.815C474.198 36.687 473.995 36.6017 473.654 36.559L471.894 36.399ZM495.241 47.727C494.857 49.1777 494.131 50.2017 493.065 50.799C492.019 51.3963 490.857 51.695 489.577 51.695C487.209 51.695 485.438 50.9803 484.265 49.551C483.091 48.1003 482.505 46.1697 482.505 43.759V43.119C482.505 40.7297 483.07 38.8203 484.201 37.391C485.331 35.9403 486.974 35.215 489.129 35.215C490.281 35.215 491.326 35.4497 492.265 35.919C493.225 36.3883 493.982 37.0817 494.537 37.999C495.113 38.9163 495.401 40.0577 495.401 41.423C495.401 42.063 495.337 42.735 495.209 43.439H485.385V44.399C485.385 46.639 485.726 48.2497 486.409 49.231C487.113 50.191 488.243 50.671 489.801 50.671C490.782 50.671 491.593 50.415 492.233 49.903C492.894 49.391 493.331 48.5057 493.545 47.247L495.241 47.727ZM489.129 36.239C487.87 36.239 486.931 36.719 486.313 37.679C485.694 38.639 485.385 40.2177 485.385 42.415H492.585V42.319C492.627 42.0417 492.659 41.775 492.681 41.519C492.702 41.2417 492.713 40.9963 492.713 40.783C492.713 39.183 492.382 38.031 491.721 37.327C491.059 36.6017 490.195 36.239 489.129 36.239ZM507.893 47.727C507.509 49.1777 506.784 50.2017 505.717 50.799C504.672 51.3963 503.509 51.695 502.229 51.695C499.861 51.695 498.091 50.9803 496.917 49.551C495.744 48.1003 495.157 46.1697 495.157 43.759V43.119C495.157 40.7297 495.723 38.8203 496.853 37.391C497.984 35.9403 499.627 35.215 501.781 35.215C502.933 35.215 503.979 35.4497 504.917 35.919C505.877 36.3883 506.635 37.0817 507.189 37.999C507.765 38.9163 508.053 40.0577 508.053 41.423C508.053 42.063 507.989 42.735 507.861 43.439H498.037V44.399C498.037 46.639 498.379 48.2497 499.061 49.231C499.765 50.191 500.896 50.671 502.453 50.671C503.435 50.671 504.245 50.415 504.885 49.903C505.547 49.391 505.984 48.5057 506.197 47.247L507.893 47.727ZM501.781 36.239C500.523 36.239 499.584 36.719 498.965 37.679C498.347 38.639 498.037 40.2177 498.037 42.415H505.237V42.319C505.28 42.0417 505.312 41.775 505.333 41.519C505.355 41.2417 505.365 40.9963 505.365 40.783C505.365 39.183 505.035 38.031 504.373 37.327C503.712 36.6017 502.848 36.239 501.781 36.239ZM524.802 50.543V51.375H517.25V50.543L519.01 50.351C519.351 50.3083 519.554 50.223 519.618 50.095C519.682 49.967 519.714 49.5297 519.714 48.783V40.815C519.714 39.2363 519.458 38.127 518.946 37.487C518.434 36.8257 517.698 36.495 516.738 36.495C516.034 36.495 515.255 36.7083 514.402 37.135C513.548 37.5617 512.748 38.3937 512.002 39.631V48.783C512.002 49.5297 512.034 49.967 512.098 50.095C512.162 50.223 512.364 50.3083 512.706 50.351L514.466 50.543V51.375H506.914V50.543L508.674 50.351C509.015 50.3083 509.218 50.223 509.282 50.095C509.346 49.967 509.378 49.5297 509.378 48.783V38.127C509.378 37.3803 509.346 36.943 509.282 36.815C509.218 36.687 509.015 36.6017 508.674 36.559L506.914 36.399V35.535H511.842V38.127C512.61 37.103 513.474 36.367 514.434 35.919C515.415 35.4497 516.396 35.215 517.378 35.215C518.956 35.215 520.172 35.7057 521.026 36.687C521.9 37.647 522.338 39.0123 522.338 40.783V48.783C522.338 49.5297 522.37 49.967 522.434 50.095C522.498 50.223 522.7 50.3083 523.042 50.351L524.802 50.543Z" fill="white"/>
<path d="M448.68 57.461C448.563 57.701 448.427 57.8797 448.272 57.997C448.123 58.109 447.963 58.165 447.792 58.165C447.584 58.165 447.429 58.093 447.328 57.949C447.227 57.7997 447.211 57.5463 447.28 57.189L447.6 55.605C447.691 55.1783 447.683 54.869 447.576 54.677C447.469 54.485 447.299 54.389 447.064 54.389C446.84 54.389 446.592 54.477 446.32 54.653C446.048 54.829 445.763 55.1623 445.464 55.653L445.032 58.125H444.552L445.128 54.861C445.16 54.6743 445.171 54.565 445.16 54.533C445.149 54.4957 445.104 54.4743 445.024 54.469L444.584 54.429L444.624 54.229H445.72L445.56 55.117C445.811 54.7597 446.069 54.509 446.336 54.365C446.603 54.221 446.867 54.149 447.128 54.149C447.523 54.149 447.803 54.2823 447.968 54.549C448.139 54.8157 448.179 55.165 448.088 55.597L447.736 57.269C447.693 57.4717 447.675 57.6343 447.68 57.757C447.685 57.8743 447.747 57.933 447.864 57.933C447.955 57.933 448.051 57.8823 448.152 57.781C448.253 57.6797 448.341 57.5143 448.416 57.285L448.68 57.461ZM451.73 56.189L451.698 56.373C451.597 56.9543 451.381 57.405 451.05 57.725C450.725 58.045 450.309 58.205 449.802 58.205C449.44 58.205 449.141 58.1117 448.906 57.925C448.677 57.7383 448.52 57.4903 448.434 57.181C448.349 56.8717 448.338 56.5303 448.402 56.157L448.434 55.973C448.536 55.3917 448.749 54.9437 449.074 54.629C449.4 54.309 449.813 54.149 450.314 54.149C450.688 54.149 450.989 54.2423 451.218 54.429C451.448 54.6157 451.605 54.8637 451.69 55.173C451.781 55.4823 451.794 55.821 451.73 56.189ZM451.21 56.013C451.296 55.5063 451.256 55.1063 451.09 54.813C450.93 54.5197 450.658 54.373 450.274 54.373C449.97 54.373 449.704 54.4877 449.474 54.717C449.25 54.941 449.093 55.3197 449.002 55.853L448.922 56.333C448.837 56.8343 448.874 57.2343 449.034 57.533C449.2 57.8317 449.472 57.981 449.85 57.981C450.16 57.981 450.429 57.8663 450.658 57.637C450.888 57.4077 451.045 57.0263 451.13 56.493L451.21 56.013ZM453.825 57.309C453.675 57.6503 453.507 57.885 453.321 58.013C453.134 58.141 452.942 58.205 452.745 58.205C452.377 58.205 452.131 58.077 452.009 57.821C451.891 57.565 451.87 57.2157 451.945 56.773L452.281 54.845C452.313 54.669 452.323 54.565 452.313 54.533C452.302 54.4957 452.254 54.4743 452.169 54.469L451.729 54.429L451.769 54.229H452.385L452.585 53.093L453.089 52.997L452.873 54.229H454.185L454.145 54.469H452.825L452.393 56.933C452.323 57.333 452.329 57.605 452.409 57.749C452.489 57.893 452.606 57.965 452.761 57.965C452.899 57.965 453.025 57.909 453.137 57.797C453.254 57.6797 453.366 57.4663 453.473 57.157L453.825 57.309Z" fill="white"/>
<path d="M448.68 57.461C448.563 57.701 448.427 57.8797 448.272 57.997C448.123 58.109 447.963 58.165 447.792 58.165C447.584 58.165 447.429 58.093 447.328 57.949C447.227 57.7997 447.211 57.5463 447.28 57.189L447.6 55.605C447.691 55.1783 447.683 54.869 447.576 54.677C447.469 54.485 447.299 54.389 447.064 54.389C446.84 54.389 446.592 54.477 446.32 54.653C446.048 54.829 445.763 55.1623 445.464 55.653L445.032 58.125H444.552L445.128 54.861C445.16 54.6743 445.171 54.565 445.16 54.533C445.149 54.4957 445.104 54.4743 445.024 54.469L444.584 54.429L444.624 54.229H445.72L445.56 55.117C445.811 54.7597 446.069 54.509 446.336 54.365C446.603 54.221 446.867 54.149 447.128 54.149C447.523 54.149 447.803 54.2823 447.968 54.549C448.139 54.8157 448.179 55.165 448.088 55.597L447.736 57.269C447.693 57.4717 447.675 57.6343 447.68 57.757C447.685 57.8743 447.747 57.933 447.864 57.933C447.955 57.933 448.051 57.8823 448.152 57.781C448.253 57.6797 448.341 57.5143 448.416 57.285L448.68 57.461ZM451.73 56.189L451.698 56.373C451.597 56.9543 451.381 57.405 451.05 57.725C450.725 58.045 450.309 58.205 449.802 58.205C449.44 58.205 449.141 58.1117 448.906 57.925C448.677 57.7383 448.52 57.4903 448.434 57.181C448.349 56.8717 448.338 56.5303 448.402 56.157L448.434 55.973C448.536 55.3917 448.749 54.9437 449.074 54.629C449.4 54.309 449.813 54.149 450.314 54.149C450.688 54.149 450.989 54.2423 451.218 54.429C451.448 54.6157 451.605 54.8637 451.69 55.173C451.781 55.4823 451.794 55.821 451.73 56.189ZM451.21 56.013C451.296 55.5063 451.256 55.1063 451.09 54.813C450.93 54.5197 450.658 54.373 450.274 54.373C449.97 54.373 449.704 54.4877 449.474 54.717C449.25 54.941 449.093 55.3197 449.002 55.853L448.922 56.333C448.837 56.8343 448.874 57.2343 449.034 57.533C449.2 57.8317 449.472 57.981 449.85 57.981C450.16 57.981 450.429 57.8663 450.658 57.637C450.888 57.4077 451.045 57.0263 451.13 56.493L451.21 56.013ZM453.825 57.309C453.675 57.6503 453.507 57.885 453.321 58.013C453.134 58.141 452.942 58.205 452.745 58.205C452.377 58.205 452.131 58.077 452.009 57.821C451.891 57.565 451.87 57.2157 451.945 56.773L452.281 54.845C452.313 54.669 452.323 54.565 452.313 54.533C452.302 54.4957 452.254 54.4743 452.169 54.469L451.729 54.429L451.769 54.229H452.385L452.585 53.093L453.089 52.997L452.873 54.229H454.185L454.145 54.469H452.825L452.393 56.933C452.323 57.333 452.329 57.605 452.409 57.749C452.489 57.893 452.606 57.965 452.761 57.965C452.899 57.965 453.025 57.909 453.137 57.797C453.254 57.6797 453.366 57.4663 453.473 57.157L453.825 57.309Z" fill="#FFC400" fill-opacity="0.5"/>
<path d="M463.664 75.509C462.021 75.509 460.581 75.221 459.344 74.645C458.107 74.0477 457.147 73.2157 456.464 72.149C455.781 71.0823 455.44 69.8343 455.44 68.405H458.8C458.821 69.2157 459.013 69.9623 459.376 70.645C459.76 71.3063 460.304 71.8397 461.008 72.245C461.733 72.629 462.619 72.821 463.664 72.821C464.56 72.821 465.328 72.6717 465.968 72.373C466.629 72.0743 467.131 71.669 467.472 71.157C467.813 70.6237 467.984 70.0157 467.984 69.333C467.984 68.5437 467.803 67.893 467.44 67.381C467.077 66.869 466.587 66.453 465.968 66.133C465.371 65.7917 464.667 65.493 463.856 65.237C463.067 64.981 462.235 64.7037 461.36 64.405C459.589 63.829 458.267 63.0823 457.392 62.165C456.539 61.2477 456.112 60.053 456.112 58.581C456.112 57.3223 456.411 56.2343 457.008 55.317C457.605 54.3783 458.437 53.653 459.504 53.141C460.592 52.6077 461.872 52.341 463.344 52.341C464.795 52.341 466.064 52.6077 467.152 53.141C468.24 53.6743 469.093 54.4103 469.712 55.349C470.331 56.2877 470.64 57.3863 470.64 58.645H467.248C467.248 58.069 467.099 57.5037 466.8 56.949C466.501 56.3943 466.053 55.9463 465.456 55.605C464.859 55.2423 464.123 55.061 463.248 55.061C462.523 55.0397 461.872 55.157 461.296 55.413C460.72 55.669 460.272 56.0423 459.952 56.533C459.632 57.0237 459.472 57.6103 459.472 58.293C459.472 58.9757 459.611 59.5303 459.888 59.957C460.187 60.3623 460.613 60.7143 461.168 61.013C461.723 61.3117 462.363 61.589 463.088 61.845C463.835 62.0797 464.656 62.3463 465.552 62.645C466.661 63.0077 467.643 63.4557 468.496 63.989C469.371 64.501 470.053 65.173 470.544 66.005C471.056 66.8157 471.312 67.861 471.312 69.141C471.312 70.2503 471.024 71.285 470.448 72.245C469.872 73.205 469.019 73.9943 467.888 74.613C466.757 75.2103 465.349 75.509 463.664 75.509ZM471.757 75.125V52.085H474.957V61.621C475.491 60.6823 476.227 59.9463 477.165 59.413C478.125 58.8797 479.181 58.613 480.333 58.613C481.613 58.613 482.712 58.8797 483.629 59.413C484.547 59.925 485.251 60.7037 485.741 61.749C486.232 62.773 486.477 64.0637 486.477 65.621V75.125H483.309V65.941C483.309 64.4477 482.989 63.317 482.349 62.549C481.709 61.7597 480.76 61.365 479.501 61.365C478.648 61.365 477.88 61.5677 477.197 61.973C476.515 62.3783 475.971 62.9757 475.565 63.765C475.16 64.533 474.957 65.4717 474.957 66.581V75.125H471.757ZM492.714 75.509C491.391 75.509 490.292 75.285 489.418 74.837C488.543 74.389 487.892 73.7917 487.466 73.045C487.039 72.277 486.826 71.4557 486.826 70.581C486.826 69.5143 487.103 68.6077 487.658 67.861C488.212 67.093 489.002 66.5063 490.026 66.101C491.05 65.6957 492.276 65.493 493.706 65.493H497.898C497.898 64.5543 497.759 63.7757 497.482 63.157C497.204 62.5383 496.788 62.0797 496.234 61.781C495.7 61.461 495.018 61.301 494.186 61.301C493.226 61.301 492.404 61.5357 491.722 62.005C491.039 62.453 490.612 63.125 490.442 64.021H487.242C487.37 62.8903 487.754 61.9303 488.394 61.141C489.055 60.3303 489.898 59.7117 490.922 59.285C491.946 58.837 493.034 58.613 494.186 58.613C495.7 58.613 496.97 58.8797 497.994 59.413C499.018 59.9463 499.786 60.7037 500.298 61.685C500.831 62.645 501.098 63.797 501.098 65.141V75.125H498.314L498.058 72.405C497.823 72.8317 497.546 73.237 497.226 73.621C496.906 74.005 496.522 74.3357 496.074 74.613C495.647 74.8903 495.146 75.1037 494.57 75.253C494.015 75.4237 493.396 75.509 492.714 75.509ZM493.322 72.917C494.004 72.917 494.623 72.7783 495.178 72.501C495.732 72.2237 496.202 71.8503 496.586 71.381C496.991 70.8903 497.29 70.3463 497.482 69.749C497.695 69.1303 497.812 68.501 497.834 67.861V67.765H494.026C493.108 67.765 492.362 67.8823 491.786 68.117C491.231 68.3303 490.826 68.629 490.57 69.013C490.314 69.397 490.186 69.845 490.186 70.357C490.186 70.8903 490.303 71.349 490.538 71.733C490.794 72.0957 491.156 72.3837 491.626 72.597C492.095 72.8103 492.66 72.917 493.322 72.917ZM501.982 75.125V58.997H504.862L505.15 62.037C505.513 61.3117 505.982 60.7037 506.558 60.213C507.134 59.701 507.806 59.3063 508.574 59.029C509.364 58.7517 510.26 58.613 511.262 58.613V62.005H510.11C509.449 62.005 508.82 62.0903 508.222 62.261C507.625 62.4103 507.092 62.677 506.622 63.061C506.174 63.445 505.822 63.9677 505.566 64.629C505.31 65.2903 505.182 66.1117 505.182 67.093V75.125H501.982ZM517.828 75.509C516.292 75.509 514.927 75.157 513.732 74.453C512.538 73.749 511.599 72.7677 510.916 71.509C510.255 70.2503 509.924 68.789 509.924 67.125C509.924 65.4183 510.255 63.9357 510.916 62.677C511.599 61.397 512.538 60.405 513.732 59.701C514.927 58.9757 516.314 58.613 517.892 58.613C519.471 58.613 520.826 58.965 521.956 59.669C523.087 60.373 523.962 61.3117 524.58 62.485C525.199 63.637 525.508 64.917 525.508 66.325C525.508 66.5383 525.498 66.773 525.476 67.029C525.476 67.2637 525.466 67.5303 525.444 67.829H512.26V65.557H522.308C522.244 64.213 521.796 63.1677 520.964 62.421C520.132 61.653 519.098 61.269 517.86 61.269C516.986 61.269 516.186 61.4717 515.46 61.877C514.735 62.261 514.148 62.837 513.7 63.605C513.274 64.3517 513.06 65.301 513.06 66.453V67.349C513.06 68.5437 513.274 69.557 513.7 70.389C514.148 71.1997 514.735 71.8183 515.46 72.245C516.186 72.6503 516.975 72.853 517.828 72.853C518.852 72.853 519.695 72.629 520.356 72.181C521.018 71.733 521.508 71.125 521.828 70.357H525.028C524.751 71.3383 524.282 72.2237 523.62 73.013C522.959 73.781 522.138 74.389 521.156 74.837C520.196 75.285 519.087 75.509 517.828 75.509Z" fill="white"/>
<path d="M463.664 75.509C462.021 75.509 460.581 75.221 459.344 74.645C458.107 74.0477 457.147 73.2157 456.464 72.149C455.781 71.0823 455.44 69.8343 455.44 68.405H458.8C458.821 69.2157 459.013 69.9623 459.376 70.645C459.76 71.3063 460.304 71.8397 461.008 72.245C461.733 72.629 462.619 72.821 463.664 72.821C464.56 72.821 465.328 72.6717 465.968 72.373C466.629 72.0743 467.131 71.669 467.472 71.157C467.813 70.6237 467.984 70.0157 467.984 69.333C467.984 68.5437 467.803 67.893 467.44 67.381C467.077 66.869 466.587 66.453 465.968 66.133C465.371 65.7917 464.667 65.493 463.856 65.237C463.067 64.981 462.235 64.7037 461.36 64.405C459.589 63.829 458.267 63.0823 457.392 62.165C456.539 61.2477 456.112 60.053 456.112 58.581C456.112 57.3223 456.411 56.2343 457.008 55.317C457.605 54.3783 458.437 53.653 459.504 53.141C460.592 52.6077 461.872 52.341 463.344 52.341C464.795 52.341 466.064 52.6077 467.152 53.141C468.24 53.6743 469.093 54.4103 469.712 55.349C470.331 56.2877 470.64 57.3863 470.64 58.645H467.248C467.248 58.069 467.099 57.5037 466.8 56.949C466.501 56.3943 466.053 55.9463 465.456 55.605C464.859 55.2423 464.123 55.061 463.248 55.061C462.523 55.0397 461.872 55.157 461.296 55.413C460.72 55.669 460.272 56.0423 459.952 56.533C459.632 57.0237 459.472 57.6103 459.472 58.293C459.472 58.9757 459.611 59.5303 459.888 59.957C460.187 60.3623 460.613 60.7143 461.168 61.013C461.723 61.3117 462.363 61.589 463.088 61.845C463.835 62.0797 464.656 62.3463 465.552 62.645C466.661 63.0077 467.643 63.4557 468.496 63.989C469.371 64.501 470.053 65.173 470.544 66.005C471.056 66.8157 471.312 67.861 471.312 69.141C471.312 70.2503 471.024 71.285 470.448 72.245C469.872 73.205 469.019 73.9943 467.888 74.613C466.757 75.2103 465.349 75.509 463.664 75.509ZM471.757 75.125V52.085H474.957V61.621C475.491 60.6823 476.227 59.9463 477.165 59.413C478.125 58.8797 479.181 58.613 480.333 58.613C481.613 58.613 482.712 58.8797 483.629 59.413C484.547 59.925 485.251 60.7037 485.741 61.749C486.232 62.773 486.477 64.0637 486.477 65.621V75.125H483.309V65.941C483.309 64.4477 482.989 63.317 482.349 62.549C481.709 61.7597 480.76 61.365 479.501 61.365C478.648 61.365 477.88 61.5677 477.197 61.973C476.515 62.3783 475.971 62.9757 475.565 63.765C475.16 64.533 474.957 65.4717 474.957 66.581V75.125H471.757ZM492.714 75.509C491.391 75.509 490.292 75.285 489.418 74.837C488.543 74.389 487.892 73.7917 487.466 73.045C487.039 72.277 486.826 71.4557 486.826 70.581C486.826 69.5143 487.103 68.6077 487.658 67.861C488.212 67.093 489.002 66.5063 490.026 66.101C491.05 65.6957 492.276 65.493 493.706 65.493H497.898C497.898 64.5543 497.759 63.7757 497.482 63.157C497.204 62.5383 496.788 62.0797 496.234 61.781C495.7 61.461 495.018 61.301 494.186 61.301C493.226 61.301 492.404 61.5357 491.722 62.005C491.039 62.453 490.612 63.125 490.442 64.021H487.242C487.37 62.8903 487.754 61.9303 488.394 61.141C489.055 60.3303 489.898 59.7117 490.922 59.285C491.946 58.837 493.034 58.613 494.186 58.613C495.7 58.613 496.97 58.8797 497.994 59.413C499.018 59.9463 499.786 60.7037 500.298 61.685C500.831 62.645 501.098 63.797 501.098 65.141V75.125H498.314L498.058 72.405C497.823 72.8317 497.546 73.237 497.226 73.621C496.906 74.005 496.522 74.3357 496.074 74.613C495.647 74.8903 495.146 75.1037 494.57 75.253C494.015 75.4237 493.396 75.509 492.714 75.509ZM493.322 72.917C494.004 72.917 494.623 72.7783 495.178 72.501C495.732 72.2237 496.202 71.8503 496.586 71.381C496.991 70.8903 497.29 70.3463 497.482 69.749C497.695 69.1303 497.812 68.501 497.834 67.861V67.765H494.026C493.108 67.765 492.362 67.8823 491.786 68.117C491.231 68.3303 490.826 68.629 490.57 69.013C490.314 69.397 490.186 69.845 490.186 70.357C490.186 70.8903 490.303 71.349 490.538 71.733C490.794 72.0957 491.156 72.3837 491.626 72.597C492.095 72.8103 492.66 72.917 493.322 72.917ZM501.982 75.125V58.997H504.862L505.15 62.037C505.513 61.3117 505.982 60.7037 506.558 60.213C507.134 59.701 507.806 59.3063 508.574 59.029C509.364 58.7517 510.26 58.613 511.262 58.613V62.005H510.11C509.449 62.005 508.82 62.0903 508.222 62.261C507.625 62.4103 507.092 62.677 506.622 63.061C506.174 63.445 505.822 63.9677 505.566 64.629C505.31 65.2903 505.182 66.1117 505.182 67.093V75.125H501.982ZM517.828 75.509C516.292 75.509 514.927 75.157 513.732 74.453C512.538 73.749 511.599 72.7677 510.916 71.509C510.255 70.2503 509.924 68.789 509.924 67.125C509.924 65.4183 510.255 63.9357 510.916 62.677C511.599 61.397 512.538 60.405 513.732 59.701C514.927 58.9757 516.314 58.613 517.892 58.613C519.471 58.613 520.826 58.965 521.956 59.669C523.087 60.373 523.962 61.3117 524.58 62.485C525.199 63.637 525.508 64.917 525.508 66.325C525.508 66.5383 525.498 66.773 525.476 67.029C525.476 67.2637 525.466 67.5303 525.444 67.829H512.26V65.557H522.308C522.244 64.213 521.796 63.1677 520.964 62.421C520.132 61.653 519.098 61.269 517.86 61.269C516.986 61.269 516.186 61.4717 515.46 61.877C514.735 62.261 514.148 62.837 513.7 63.605C513.274 64.3517 513.06 65.301 513.06 66.453V67.349C513.06 68.5437 513.274 69.557 513.7 70.389C514.148 71.1997 514.735 71.8183 515.46 72.245C516.186 72.6503 516.975 72.853 517.828 72.853C518.852 72.853 519.695 72.629 520.356 72.181C521.018 71.733 521.508 71.125 521.828 70.357H525.028C524.751 71.3383 524.282 72.2237 523.62 73.013C522.959 73.781 522.138 74.389 521.156 74.837C520.196 75.285 519.087 75.509 517.828 75.509Z" fill="#FF0000" fill-opacity="0.5"/>
</svg>
