<svg width="375" height="116" viewBox="0 0 375 116" fill="none" xmlns="http://www.w3.org/2000/svg">
<g clip-path="url(#clip0_6_2)">
<path d="M2.944 7.688V4.104H26.752V14.6C31.9573 6.74933 38.144 2.824 45.312 2.824C47.9573 2.824 50.5173 3.67733 52.992 5.384C55.4667 7.00533 57.5147 10.0773 59.136 14.6L47.744 20.744C46.5493 17.2453 45.1413 14.8987 43.52 13.704C41.984 12.424 40.32 11.784 38.528 11.784C36.6507 11.784 34.816 12.3813 33.024 13.576C31.232 14.7707 29.3973 16.9893 27.52 20.232V58.248C27.52 61.1493 27.648 62.8987 27.904 63.496C28.16 64.008 28.9707 64.3493 30.336 64.52L39.936 65.416V69H2.944V65.416L9.984 64.52C11.3493 64.3493 12.16 64.008 12.416 63.496C12.672 62.8987 12.8 61.1493 12.8 58.248V14.856C12.8 11.9547 12.672 10.248 12.416 9.736C12.16 9.13866 11.3493 8.75466 9.984 8.584L2.944 7.688ZM101.282 53.768C99.746 59.7413 96.8873 64.008 92.706 66.568C88.5247 69.0427 83.6607 70.28 78.114 70.28C67.874 70.28 60.194 67.336 55.074 61.448C49.954 55.4747 47.394 47.5813 47.394 37.768V35.208C47.394 25.3947 49.7833 17.544 54.562 11.656C59.426 5.768 66.4233 2.824 75.554 2.824C80.674 2.824 85.1967 3.848 89.122 5.896C93.1327 7.85866 96.2473 10.7173 98.466 14.472C100.77 18.2267 101.922 22.792 101.922 28.168C101.922 29.448 101.837 30.8133 101.666 32.264C101.581 33.7147 101.367 35.1653 101.026 36.616H63.138V40.328C63.138 49.3733 64.418 55.9013 66.978 59.912C69.538 63.8373 73.6767 65.8 79.394 65.8C83.0633 65.8 86.178 64.7333 88.738 62.6C91.298 60.3813 92.7487 56.6693 93.09 51.464L101.282 53.768ZM75.554 7.304C71.3727 7.304 68.258 9.224 66.21 13.064C64.162 16.904 63.138 23.2613 63.138 32.136H86.306C86.6473 30.4293 86.8607 28.8507 86.946 27.4C87.1167 25.864 87.202 24.456 87.202 23.176C87.202 17.7147 86.1353 13.704 84.002 11.144C81.8687 8.584 79.0527 7.304 75.554 7.304ZM157.128 75.656C157.128 82.6533 154.483 88.0293 149.192 91.784C143.987 95.624 136.819 97.544 127.688 97.544C117.619 97.544 110.109 95.88 105.16 92.552C100.211 89.3093 97.5227 85.256 97.096 80.392L110.792 78.216C110.451 82.7387 111.517 86.3227 113.992 88.968C116.552 91.6987 121.117 93.064 127.688 93.064C133.832 93.064 138.781 91.912 142.536 89.608C146.376 87.304 148.296 83.976 148.296 79.624C148.296 76.552 147.144 74.2053 144.84 72.584C142.621 71.048 138.909 70.28 133.704 70.28H119.112C114.589 70.28 111.005 69.64 108.36 68.36C105.8 67.08 104.008 65.5013 102.984 63.624C101.96 61.6613 101.448 59.656 101.448 57.608C101.448 55.1333 102.131 52.7013 103.496 50.312C104.861 47.8373 107.208 45.4053 110.536 43.016C106.867 41.3947 103.88 39.0053 101.576 35.848C99.272 32.6907 98.12 28.7653 98.12 24.072C98.12 19.2933 99.2293 15.368 101.448 12.296C103.667 9.13866 106.653 6.792 110.408 5.256C114.163 3.63466 118.344 2.824 122.952 2.824H125.128C130.077 2.824 134.344 3.63466 137.928 5.256L156.36 -3.832L157.896 8.712H143.304C145.352 10.504 146.931 12.68 148.04 15.24C149.235 17.7147 149.832 20.6587 149.832 24.072C149.832 28.68 148.723 32.5627 146.504 35.72C144.285 38.8773 141.299 41.2667 137.544 42.888C133.875 44.5093 129.736 45.32 125.128 45.32H122.952C120.392 45.32 117.875 45.064 115.4 44.552C113.267 46.0027 111.773 47.4107 110.92 48.776C110.152 50.056 109.768 51.2933 109.768 52.488C109.768 53.8533 110.365 54.8773 111.56 55.56C112.84 56.2427 114.888 56.584 117.704 56.584H134.344C141.683 56.584 147.315 58.248 151.24 61.576C155.165 64.8187 157.128 69.512 157.128 75.656ZM125.128 40.84C127.859 40.84 130.205 39.6453 132.168 37.256C134.131 34.8667 135.112 30.472 135.112 24.072C135.112 17.672 134.131 13.2773 132.168 10.888C130.205 8.49866 127.859 7.304 125.128 7.304H122.952C120.221 7.304 117.832 8.49866 115.784 10.888C113.821 13.2773 112.84 17.672 112.84 24.072C112.84 30.472 113.821 34.8667 115.784 37.256C117.832 39.6453 120.221 40.84 122.952 40.84H125.128ZM203.877 53.768C202.341 59.7413 199.482 64.008 195.301 66.568C191.12 69.0427 186.256 70.28 180.709 70.28C170.469 70.28 162.789 67.336 157.669 61.448C152.549 55.4747 149.989 47.5813 149.989 37.768V35.208C149.989 25.3947 152.378 17.544 157.157 11.656C162.021 5.768 169.018 2.824 178.149 2.824C183.269 2.824 187.792 3.848 191.717 5.896C195.728 7.85866 198.842 10.7173 201.061 14.472C203.365 18.2267 204.517 22.792 204.517 28.168C204.517 29.448 204.432 30.8133 204.261 32.264C204.176 33.7147 203.962 35.1653 203.621 36.616H165.733V40.328C165.733 49.3733 167.013 55.9013 169.573 59.912C172.133 63.8373 176.272 65.8 181.989 65.8C185.658 65.8 188.773 64.7333 191.333 62.6C193.893 60.3813 195.344 56.6693 195.685 51.464L203.877 53.768ZM178.149 7.304C173.968 7.304 170.853 9.224 168.805 13.064C166.757 16.904 165.733 23.2613 165.733 32.136H188.901C189.242 30.4293 189.456 28.8507 189.541 27.4C189.712 25.864 189.797 24.456 189.797 23.176C189.797 17.7147 188.73 13.704 186.597 11.144C184.464 8.584 181.648 7.304 178.149 7.304ZM220.555 65.416V69H194.955V65.416L201.995 64.52C202.848 64.3493 203.488 64.1787 203.915 64.008C204.427 63.752 205.024 63.1973 205.707 62.344C206.39 61.4907 207.371 60.1253 208.651 58.248L222.347 38.28L208.651 14.856C207.542 12.8933 206.688 11.528 206.091 10.76C205.494 9.90666 204.939 9.352 204.427 9.096C203.915 8.84 203.232 8.66933 202.379 8.584L195.339 7.688V4.104H230.795V7.688L223.755 8.584C222.39 8.75466 221.75 9.096 221.835 9.608C221.92 10.12 222.816 11.8693 224.523 14.856L233.099 29.448L242.955 14.856C244.918 11.9547 245.899 10.248 245.899 9.736C245.984 9.13866 245.344 8.75466 243.979 8.584L236.939 7.688V4.104H262.539V7.688L255.499 8.584C254.646 8.66933 253.963 8.84 253.451 9.096C253.024 9.352 252.47 9.90666 251.787 10.76C251.19 11.528 250.208 12.8933 248.843 14.856L235.787 34.056L249.867 58.248C251.062 60.2107 251.915 61.6187 252.427 62.472C253.024 63.24 253.579 63.752 254.091 64.008C254.603 64.1787 255.286 64.3493 256.139 64.52L263.179 65.416V69H227.723V65.416L234.763 64.52C236.128 64.3493 236.768 64.008 236.683 63.496C236.598 62.8987 235.702 61.1493 233.995 58.248L225.035 42.76L214.539 58.248C212.576 61.1493 211.552 62.8987 211.467 63.496C211.467 64.008 212.15 64.3493 213.515 64.52L220.555 65.416Z" fill="white"/>
<path d="M268.336 28.592V28.16H270.88V33.232C271.189 32.7733 271.541 32.4427 271.936 32.24C272.331 32.0267 272.757 31.92 273.216 31.92C274.133 31.92 274.843 32.2667 275.344 32.96C275.856 33.6533 276.112 34.624 276.112 35.872V36.192C276.112 37.408 275.819 38.3733 275.232 39.088C274.656 39.8027 273.845 40.16 272.8 40.16C271.968 40.16 271.285 39.888 270.752 39.344C270.603 39.4293 270.464 39.536 270.336 39.664C270.208 39.792 270.08 39.9307 269.952 40.08H269.568V29.456C269.568 29.0827 269.552 28.864 269.52 28.8C269.488 28.736 269.387 28.6933 269.216 28.672L268.336 28.592ZM273.008 32.496C272.677 32.496 272.331 32.6027 271.968 32.816C271.616 33.0293 271.253 33.4613 270.88 34.112V38.688C271.339 39.3173 271.947 39.632 272.704 39.632C273.397 39.632 273.899 39.3707 274.208 38.848C274.517 38.3147 274.672 37.5893 274.672 36.672V35.392C274.672 34.3893 274.528 33.6587 274.24 33.2C273.952 32.7307 273.541 32.496 273.008 32.496ZM279.291 40.8C279.056 41.4507 278.8 41.9787 278.523 42.384C278.245 42.8 277.915 43.0987 277.531 43.28C277.147 43.472 276.667 43.568 276.091 43.568V42.288C276.859 42.288 277.44 42.1653 277.835 41.92C278.229 41.6853 278.544 41.2427 278.779 40.592L278.987 40H278.523L276.171 33.28C276.064 32.9707 275.984 32.7893 275.931 32.736C275.877 32.672 275.765 32.6293 275.595 32.608L274.779 32.512V32.08H278.427V32.512L277.611 32.608C277.461 32.6187 277.376 32.656 277.355 32.72C277.333 32.784 277.376 32.9707 277.483 33.28L279.403 38.816L281.339 33.264C281.435 32.9547 281.472 32.7733 281.451 32.72C281.44 32.6667 281.355 32.6293 281.195 32.608L280.363 32.512V32.08H283.291V32.512L282.475 32.608C282.315 32.6293 282.208 32.6667 282.155 32.72C282.101 32.7733 282.021 32.9547 281.915 33.264L279.291 40.8Z" fill="white"/>
<path d="M302.14 32.671C303.569 32.671 304.721 32.319 305.596 31.615C306.492 30.911 306.94 29.8763 306.94 28.511C306.94 27.423 306.609 26.5163 305.948 25.791C305.287 25.0443 304.135 24.447 302.492 23.999L300.284 23.359C298.663 22.911 297.425 22.1537 296.572 21.087C295.719 20.0203 295.292 18.719 295.292 17.183C295.292 16.159 295.527 15.199 295.996 14.303C296.487 13.407 297.223 12.6817 298.204 12.127C299.207 11.5723 300.476 11.295 302.012 11.295C303.719 11.295 305.095 11.615 306.14 12.255C307.185 12.8737 307.911 13.6843 308.316 14.687C308.721 15.6897 308.817 16.767 308.604 17.919L305.916 18.495C306.193 16.511 305.991 14.9857 305.308 13.919C304.647 12.8523 303.495 12.319 301.852 12.319C300.551 12.319 299.527 12.671 298.78 13.375C298.033 14.0577 297.66 15.0603 297.66 16.383C297.66 17.4283 297.959 18.3243 298.556 19.071C299.153 19.7963 300.209 20.3723 301.724 20.799L303.932 21.439C307.495 22.4203 309.276 24.5003 309.276 27.679C309.276 28.8097 309.009 29.8337 308.476 30.751C307.964 31.647 307.175 32.3617 306.108 32.895C305.063 33.4283 303.74 33.695 302.14 33.695C301.031 33.695 299.964 33.5243 298.94 33.183C297.937 32.8417 297.073 32.255 296.348 31.423C295.644 30.591 295.175 29.439 294.94 27.967L296.86 27.327C296.967 28.735 297.276 29.823 297.788 30.591C298.3 31.359 298.94 31.903 299.708 32.223C300.476 32.5217 301.287 32.671 302.14 32.671ZM315.479 18.239C314.306 18.239 313.389 18.7297 312.727 19.711C312.087 20.671 311.767 22.2603 311.767 24.479V26.399C311.767 28.639 312.087 30.2497 312.727 31.231C313.389 32.191 314.455 32.671 315.927 32.671C316.93 32.671 317.741 32.415 318.359 31.903C318.978 31.391 319.394 30.5057 319.607 29.247L321.303 29.727C320.919 31.1777 320.215 32.2017 319.191 32.799C318.167 33.3963 317.026 33.695 315.767 33.695C313.463 33.695 311.735 32.9803 310.583 31.551C309.453 30.1003 308.887 28.1697 308.887 25.759V25.119C308.887 22.7297 309.453 20.8203 310.583 19.391C311.714 17.9403 313.346 17.215 315.479 17.215C316.845 17.215 317.975 17.4817 318.871 18.015C319.789 18.5483 320.439 19.2737 320.823 20.191C321.207 21.087 321.314 22.079 321.143 23.167L318.615 23.551C318.85 21.8443 318.69 20.5323 318.135 19.615C317.602 18.6977 316.717 18.239 315.479 18.239ZM319.894 18.399V17.535H324.822V20.095C325.568 19.0923 326.315 18.367 327.062 17.919C327.83 17.4497 328.608 17.215 329.398 17.215C330.08 17.215 330.72 17.4177 331.318 17.823C331.915 18.2283 332.416 18.879 332.822 19.775L330.742 21.023C330.422 20.255 330.059 19.7217 329.654 19.423C329.248 19.1243 328.8 18.975 328.31 18.975C327.776 18.975 327.243 19.1457 326.71 19.487C326.198 19.8283 325.622 20.4683 324.982 21.407V30.783C324.982 31.5297 325.014 31.9777 325.078 32.127C325.142 32.255 325.344 32.3297 325.686 32.351L328.086 32.543V33.375H319.894V32.543L321.654 32.351C321.995 32.3083 322.198 32.223 322.262 32.095C322.326 31.967 322.358 31.5297 322.358 30.783V20.127C322.358 19.3803 322.326 18.943 322.262 18.815C322.198 18.687 321.995 18.6017 321.654 18.559L319.894 18.399ZM343.241 29.727C342.857 31.1777 342.131 32.2017 341.065 32.799C340.019 33.3963 338.857 33.695 337.577 33.695C335.209 33.695 333.438 32.9803 332.265 31.551C331.091 30.1003 330.505 28.1697 330.505 25.759V25.119C330.505 22.7297 331.07 20.8203 332.201 19.391C333.331 17.9403 334.974 17.215 337.129 17.215C338.281 17.215 339.326 17.4497 340.265 17.919C341.225 18.3883 341.982 19.0817 342.537 19.999C343.113 20.9163 343.401 22.0577 343.401 23.423C343.401 24.063 343.337 24.735 343.209 25.439H333.385V26.399C333.385 28.639 333.726 30.2497 334.409 31.231C335.113 32.191 336.243 32.671 337.801 32.671C338.782 32.671 339.593 32.415 340.233 31.903C340.894 31.391 341.331 30.5057 341.545 29.247L343.241 29.727ZM337.129 18.239C335.87 18.239 334.931 18.719 334.313 19.679C333.694 20.639 333.385 22.2177 333.385 24.415H340.585V24.319C340.627 24.0417 340.659 23.775 340.681 23.519C340.702 23.2417 340.713 22.9963 340.713 22.783C340.713 21.183 340.382 20.031 339.721 19.327C339.059 18.6017 338.195 18.239 337.129 18.239ZM355.893 29.727C355.509 31.1777 354.784 32.2017 353.717 32.799C352.672 33.3963 351.509 33.695 350.229 33.695C347.861 33.695 346.091 32.9803 344.917 31.551C343.744 30.1003 343.157 28.1697 343.157 25.759V25.119C343.157 22.7297 343.723 20.8203 344.853 19.391C345.984 17.9403 347.627 17.215 349.781 17.215C350.933 17.215 351.979 17.4497 352.917 17.919C353.877 18.3883 354.635 19.0817 355.189 19.999C355.765 20.9163 356.053 22.0577 356.053 23.423C356.053 24.063 355.989 24.735 355.861 25.439H346.037V26.399C346.037 28.639 346.379 30.2497 347.061 31.231C347.765 32.191 348.896 32.671 350.453 32.671C351.435 32.671 352.245 32.415 352.885 31.903C353.547 31.391 353.984 30.5057 354.197 29.247L355.893 29.727ZM349.781 18.239C348.523 18.239 347.584 18.719 346.965 19.679C346.347 20.639 346.037 22.2177 346.037 24.415H353.237V24.319C353.28 24.0417 353.312 23.775 353.333 23.519C353.355 23.2417 353.365 22.9963 353.365 22.783C353.365 21.183 353.035 20.031 352.373 19.327C351.712 18.6017 350.848 18.239 349.781 18.239ZM372.802 32.543V33.375H365.25V32.543L367.01 32.351C367.351 32.3083 367.554 32.223 367.618 32.095C367.682 31.967 367.714 31.5297 367.714 30.783V22.815C367.714 21.2363 367.458 20.127 366.946 19.487C366.434 18.8257 365.698 18.495 364.738 18.495C364.034 18.495 363.255 18.7083 362.402 19.135C361.548 19.5617 360.748 20.3937 360.002 21.631V30.783C360.002 31.5297 360.034 31.967 360.098 32.095C360.162 32.223 360.364 32.3083 360.706 32.351L362.466 32.543V33.375H354.914V32.543L356.674 32.351C357.015 32.3083 357.218 32.223 357.282 32.095C357.346 31.967 357.378 31.5297 357.378 30.783V20.127C357.378 19.3803 357.346 18.943 357.282 18.815C357.218 18.687 357.015 18.6017 356.674 18.559L354.914 18.399V17.535H359.842V20.127C360.61 19.103 361.474 18.367 362.434 17.919C363.415 17.4497 364.396 17.215 365.378 17.215C366.956 17.215 368.172 17.7057 369.026 18.687C369.9 19.647 370.338 21.0123 370.338 22.783V30.783C370.338 31.5297 370.37 31.967 370.434 32.095C370.498 32.223 370.7 32.3083 371.042 32.351L372.802 32.543Z" fill="white"/>
<path d="M296.68 39.461C296.563 39.701 296.427 39.8797 296.272 39.997C296.123 40.109 295.963 40.165 295.792 40.165C295.584 40.165 295.429 40.093 295.328 39.949C295.227 39.7997 295.211 39.5463 295.28 39.189L295.6 37.605C295.691 37.1783 295.683 36.869 295.576 36.677C295.469 36.485 295.299 36.389 295.064 36.389C294.84 36.389 294.592 36.477 294.32 36.653C294.048 36.829 293.763 37.1623 293.464 37.653L293.032 40.125H292.552L293.128 36.861C293.16 36.6743 293.171 36.565 293.16 36.533C293.149 36.4957 293.104 36.4743 293.024 36.469L292.584 36.429L292.624 36.229H293.72L293.56 37.117C293.811 36.7597 294.069 36.509 294.336 36.365C294.603 36.221 294.867 36.149 295.128 36.149C295.523 36.149 295.803 36.2823 295.968 36.549C296.139 36.8157 296.179 37.165 296.088 37.597L295.736 39.269C295.693 39.4717 295.675 39.6343 295.68 39.757C295.685 39.8743 295.747 39.933 295.864 39.933C295.955 39.933 296.051 39.8823 296.152 39.781C296.253 39.6797 296.341 39.5143 296.416 39.285L296.68 39.461ZM299.73 38.189L299.698 38.373C299.597 38.9543 299.381 39.405 299.05 39.725C298.725 40.045 298.309 40.205 297.802 40.205C297.44 40.205 297.141 40.1117 296.906 39.925C296.677 39.7383 296.52 39.4903 296.434 39.181C296.349 38.8717 296.338 38.5303 296.402 38.157L296.434 37.973C296.536 37.3917 296.749 36.9437 297.074 36.629C297.4 36.309 297.813 36.149 298.314 36.149C298.688 36.149 298.989 36.2423 299.218 36.429C299.448 36.6157 299.605 36.8637 299.69 37.173C299.781 37.4823 299.794 37.821 299.73 38.189ZM299.21 38.013C299.296 37.5063 299.256 37.1063 299.09 36.813C298.93 36.5197 298.658 36.373 298.274 36.373C297.97 36.373 297.704 36.4877 297.474 36.717C297.25 36.941 297.093 37.3197 297.002 37.853L296.922 38.333C296.837 38.8343 296.874 39.2343 297.034 39.533C297.2 39.8317 297.472 39.981 297.85 39.981C298.16 39.981 298.429 39.8663 298.658 39.637C298.888 39.4077 299.045 39.0263 299.13 38.493L299.21 38.013ZM301.825 39.309C301.675 39.6503 301.507 39.885 301.321 40.013C301.134 40.141 300.942 40.205 300.745 40.205C300.377 40.205 300.131 40.077 300.009 39.821C299.891 39.565 299.87 39.2157 299.945 38.773L300.281 36.845C300.313 36.669 300.323 36.565 300.313 36.533C300.302 36.4957 300.254 36.4743 300.169 36.469L299.729 36.429L299.769 36.229H300.385L300.585 35.093L301.089 34.997L300.873 36.229H302.185L302.145 36.469H300.825L300.393 38.933C300.323 39.333 300.329 39.605 300.409 39.749C300.489 39.893 300.606 39.965 300.761 39.965C300.899 39.965 301.025 39.909 301.137 39.797C301.254 39.6797 301.366 39.4663 301.473 39.157L301.825 39.309Z" fill="white"/>
<path d="M296.68 39.461C296.563 39.701 296.427 39.8797 296.272 39.997C296.123 40.109 295.963 40.165 295.792 40.165C295.584 40.165 295.429 40.093 295.328 39.949C295.227 39.7997 295.211 39.5463 295.28 39.189L295.6 37.605C295.691 37.1783 295.683 36.869 295.576 36.677C295.469 36.485 295.299 36.389 295.064 36.389C294.84 36.389 294.592 36.477 294.32 36.653C294.048 36.829 293.763 37.1623 293.464 37.653L293.032 40.125H292.552L293.128 36.861C293.16 36.6743 293.171 36.565 293.16 36.533C293.149 36.4957 293.104 36.4743 293.024 36.469L292.584 36.429L292.624 36.229H293.72L293.56 37.117C293.811 36.7597 294.069 36.509 294.336 36.365C294.603 36.221 294.867 36.149 295.128 36.149C295.523 36.149 295.803 36.2823 295.968 36.549C296.139 36.8157 296.179 37.165 296.088 37.597L295.736 39.269C295.693 39.4717 295.675 39.6343 295.68 39.757C295.685 39.8743 295.747 39.933 295.864 39.933C295.955 39.933 296.051 39.8823 296.152 39.781C296.253 39.6797 296.341 39.5143 296.416 39.285L296.68 39.461ZM299.73 38.189L299.698 38.373C299.597 38.9543 299.381 39.405 299.05 39.725C298.725 40.045 298.309 40.205 297.802 40.205C297.44 40.205 297.141 40.1117 296.906 39.925C296.677 39.7383 296.52 39.4903 296.434 39.181C296.349 38.8717 296.338 38.5303 296.402 38.157L296.434 37.973C296.536 37.3917 296.749 36.9437 297.074 36.629C297.4 36.309 297.813 36.149 298.314 36.149C298.688 36.149 298.989 36.2423 299.218 36.429C299.448 36.6157 299.605 36.8637 299.69 37.173C299.781 37.4823 299.794 37.821 299.73 38.189ZM299.21 38.013C299.296 37.5063 299.256 37.1063 299.09 36.813C298.93 36.5197 298.658 36.373 298.274 36.373C297.97 36.373 297.704 36.4877 297.474 36.717C297.25 36.941 297.093 37.3197 297.002 37.853L296.922 38.333C296.837 38.8343 296.874 39.2343 297.034 39.533C297.2 39.8317 297.472 39.981 297.85 39.981C298.16 39.981 298.429 39.8663 298.658 39.637C298.888 39.4077 299.045 39.0263 299.13 38.493L299.21 38.013ZM301.825 39.309C301.675 39.6503 301.507 39.885 301.321 40.013C301.134 40.141 300.942 40.205 300.745 40.205C300.377 40.205 300.131 40.077 300.009 39.821C299.891 39.565 299.87 39.2157 299.945 38.773L300.281 36.845C300.313 36.669 300.323 36.565 300.313 36.533C300.302 36.4957 300.254 36.4743 300.169 36.469L299.729 36.429L299.769 36.229H300.385L300.585 35.093L301.089 34.997L300.873 36.229H302.185L302.145 36.469H300.825L300.393 38.933C300.323 39.333 300.329 39.605 300.409 39.749C300.489 39.893 300.606 39.965 300.761 39.965C300.899 39.965 301.025 39.909 301.137 39.797C301.254 39.6797 301.366 39.4663 301.473 39.157L301.825 39.309Z" fill="#FFC400" fill-opacity="0.5"/>
<path d="M311.664 57.509C310.021 57.509 308.581 57.221 307.344 56.645C306.107 56.0477 305.147 55.2157 304.464 54.149C303.781 53.0823 303.44 51.8343 303.44 50.405H306.8C306.821 51.2157 307.013 51.9623 307.376 52.645C307.76 53.3063 308.304 53.8397 309.008 54.245C309.733 54.629 310.619 54.821 311.664 54.821C312.56 54.821 313.328 54.6717 313.968 54.373C314.629 54.0743 315.131 53.669 315.472 53.157C315.813 52.6237 315.984 52.0157 315.984 51.333C315.984 50.5437 315.803 49.893 315.44 49.381C315.077 48.869 314.587 48.453 313.968 48.133C313.371 47.7917 312.667 47.493 311.856 47.237C311.067 46.981 310.235 46.7037 309.36 46.405C307.589 45.829 306.267 45.0823 305.392 44.165C304.539 43.2477 304.112 42.053 304.112 40.581C304.112 39.3223 304.411 38.2343 305.008 37.317C305.605 36.3783 306.437 35.653 307.504 35.141C308.592 34.6077 309.872 34.341 311.344 34.341C312.795 34.341 314.064 34.6077 315.152 35.141C316.24 35.6743 317.093 36.4103 317.712 37.349C318.331 38.2877 318.64 39.3863 318.64 40.645H315.248C315.248 40.069 315.099 39.5037 314.8 38.949C314.501 38.3943 314.053 37.9463 313.456 37.605C312.859 37.2423 312.123 37.061 311.248 37.061C310.523 37.0397 309.872 37.157 309.296 37.413C308.72 37.669 308.272 38.0423 307.952 38.533C307.632 39.0237 307.472 39.6103 307.472 40.293C307.472 40.9757 307.611 41.5303 307.888 41.957C308.187 42.3623 308.613 42.7143 309.168 43.013C309.723 43.3117 310.363 43.589 311.088 43.845C311.835 44.0797 312.656 44.3463 313.552 44.645C314.661 45.0077 315.643 45.4557 316.496 45.989C317.371 46.501 318.053 47.173 318.544 48.005C319.056 48.8157 319.312 49.861 319.312 51.141C319.312 52.2503 319.024 53.285 318.448 54.245C317.872 55.205 317.019 55.9943 315.888 56.613C314.757 57.2103 313.349 57.509 311.664 57.509ZM319.757 57.125V34.085H322.957V43.621C323.491 42.6823 324.227 41.9463 325.165 41.413C326.125 40.8797 327.181 40.613 328.333 40.613C329.613 40.613 330.712 40.8797 331.629 41.413C332.547 41.925 333.251 42.7037 333.741 43.749C334.232 44.773 334.477 46.0637 334.477 47.621V57.125H331.309V47.941C331.309 46.4477 330.989 45.317 330.349 44.549C329.709 43.7597 328.76 43.365 327.501 43.365C326.648 43.365 325.88 43.5677 325.197 43.973C324.515 44.3783 323.971 44.9757 323.565 45.765C323.16 46.533 322.957 47.4717 322.957 48.581V57.125H319.757ZM340.714 57.509C339.391 57.509 338.292 57.285 337.418 56.837C336.543 56.389 335.892 55.7917 335.466 55.045C335.039 54.277 334.826 53.4557 334.826 52.581C334.826 51.5143 335.103 50.6077 335.658 49.861C336.212 49.093 337.002 48.5063 338.026 48.101C339.05 47.6957 340.276 47.493 341.706 47.493H345.898C345.898 46.5543 345.759 45.7757 345.482 45.157C345.204 44.5383 344.788 44.0797 344.234 43.781C343.7 43.461 343.018 43.301 342.186 43.301C341.226 43.301 340.404 43.5357 339.722 44.005C339.039 44.453 338.612 45.125 338.442 46.021H335.242C335.37 44.8903 335.754 43.9303 336.394 43.141C337.055 42.3303 337.898 41.7117 338.922 41.285C339.946 40.837 341.034 40.613 342.186 40.613C343.7 40.613 344.97 40.8797 345.994 41.413C347.018 41.9463 347.786 42.7037 348.298 43.685C348.831 44.645 349.098 45.797 349.098 47.141V57.125H346.314L346.058 54.405C345.823 54.8317 345.546 55.237 345.226 55.621C344.906 56.005 344.522 56.3357 344.074 56.613C343.647 56.8903 343.146 57.1037 342.57 57.253C342.015 57.4237 341.396 57.509 340.714 57.509ZM341.322 54.917C342.004 54.917 342.623 54.7783 343.178 54.501C343.732 54.2237 344.202 53.8503 344.586 53.381C344.991 52.8903 345.29 52.3463 345.482 51.749C345.695 51.1303 345.812 50.501 345.834 49.861V49.765H342.026C341.108 49.765 340.362 49.8823 339.786 50.117C339.231 50.3303 338.826 50.629 338.57 51.013C338.314 51.397 338.186 51.845 338.186 52.357C338.186 52.8903 338.303 53.349 338.538 53.733C338.794 54.0957 339.156 54.3837 339.626 54.597C340.095 54.8103 340.66 54.917 341.322 54.917ZM349.982 57.125V40.997H352.862L353.15 44.037C353.513 43.3117 353.982 42.7037 354.558 42.213C355.134 41.701 355.806 41.3063 356.574 41.029C357.364 40.7517 358.26 40.613 359.262 40.613V44.005H358.11C357.449 44.005 356.82 44.0903 356.222 44.261C355.625 44.4103 355.092 44.677 354.622 45.061C354.174 45.445 353.822 45.9677 353.566 46.629C353.31 47.2903 353.182 48.1117 353.182 49.093V57.125H349.982ZM365.828 57.509C364.292 57.509 362.927 57.157 361.732 56.453C360.538 55.749 359.599 54.7677 358.916 53.509C358.255 52.2503 357.924 50.789 357.924 49.125C357.924 47.4183 358.255 45.9357 358.916 44.677C359.599 43.397 360.538 42.405 361.732 41.701C362.927 40.9757 364.314 40.613 365.892 40.613C367.471 40.613 368.826 40.965 369.956 41.669C371.087 42.373 371.962 43.3117 372.58 44.485C373.199 45.637 373.508 46.917 373.508 48.325C373.508 48.5383 373.498 48.773 373.476 49.029C373.476 49.2637 373.466 49.5303 373.444 49.829H360.26V47.557H370.308C370.244 46.213 369.796 45.1677 368.964 44.421C368.132 43.653 367.098 43.269 365.86 43.269C364.986 43.269 364.186 43.4717 363.46 43.877C362.735 44.261 362.148 44.837 361.7 45.605C361.274 46.3517 361.06 47.301 361.06 48.453V49.349C361.06 50.5437 361.274 51.557 361.7 52.389C362.148 53.1997 362.735 53.8183 363.46 54.245C364.186 54.6503 364.975 54.853 365.828 54.853C366.852 54.853 367.695 54.629 368.356 54.181C369.018 53.733 369.508 53.125 369.828 52.357H373.028C372.751 53.3383 372.282 54.2237 371.62 55.013C370.959 55.781 370.138 56.389 369.156 56.837C368.196 57.285 367.087 57.509 365.828 57.509Z" fill="white"/>
<path d="M311.664 57.509C310.021 57.509 308.581 57.221 307.344 56.645C306.107 56.0477 305.147 55.2157 304.464 54.149C303.781 53.0823 303.44 51.8343 303.44 50.405H306.8C306.821 51.2157 307.013 51.9623 307.376 52.645C307.76 53.3063 308.304 53.8397 309.008 54.245C309.733 54.629 310.619 54.821 311.664 54.821C312.56 54.821 313.328 54.6717 313.968 54.373C314.629 54.0743 315.131 53.669 315.472 53.157C315.813 52.6237 315.984 52.0157 315.984 51.333C315.984 50.5437 315.803 49.893 315.44 49.381C315.077 48.869 314.587 48.453 313.968 48.133C313.371 47.7917 312.667 47.493 311.856 47.237C311.067 46.981 310.235 46.7037 309.36 46.405C307.589 45.829 306.267 45.0823 305.392 44.165C304.539 43.2477 304.112 42.053 304.112 40.581C304.112 39.3223 304.411 38.2343 305.008 37.317C305.605 36.3783 306.437 35.653 307.504 35.141C308.592 34.6077 309.872 34.341 311.344 34.341C312.795 34.341 314.064 34.6077 315.152 35.141C316.24 35.6743 317.093 36.4103 317.712 37.349C318.331 38.2877 318.64 39.3863 318.64 40.645H315.248C315.248 40.069 315.099 39.5037 314.8 38.949C314.501 38.3943 314.053 37.9463 313.456 37.605C312.859 37.2423 312.123 37.061 311.248 37.061C310.523 37.0397 309.872 37.157 309.296 37.413C308.72 37.669 308.272 38.0423 307.952 38.533C307.632 39.0237 307.472 39.6103 307.472 40.293C307.472 40.9757 307.611 41.5303 307.888 41.957C308.187 42.3623 308.613 42.7143 309.168 43.013C309.723 43.3117 310.363 43.589 311.088 43.845C311.835 44.0797 312.656 44.3463 313.552 44.645C314.661 45.0077 315.643 45.4557 316.496 45.989C317.371 46.501 318.053 47.173 318.544 48.005C319.056 48.8157 319.312 49.861 319.312 51.141C319.312 52.2503 319.024 53.285 318.448 54.245C317.872 55.205 317.019 55.9943 315.888 56.613C314.757 57.2103 313.349 57.509 311.664 57.509ZM319.757 57.125V34.085H322.957V43.621C323.491 42.6823 324.227 41.9463 325.165 41.413C326.125 40.8797 327.181 40.613 328.333 40.613C329.613 40.613 330.712 40.8797 331.629 41.413C332.547 41.925 333.251 42.7037 333.741 43.749C334.232 44.773 334.477 46.0637 334.477 47.621V57.125H331.309V47.941C331.309 46.4477 330.989 45.317 330.349 44.549C329.709 43.7597 328.76 43.365 327.501 43.365C326.648 43.365 325.88 43.5677 325.197 43.973C324.515 44.3783 323.971 44.9757 323.565 45.765C323.16 46.533 322.957 47.4717 322.957 48.581V57.125H319.757ZM340.714 57.509C339.391 57.509 338.292 57.285 337.418 56.837C336.543 56.389 335.892 55.7917 335.466 55.045C335.039 54.277 334.826 53.4557 334.826 52.581C334.826 51.5143 335.103 50.6077 335.658 49.861C336.212 49.093 337.002 48.5063 338.026 48.101C339.05 47.6957 340.276 47.493 341.706 47.493H345.898C345.898 46.5543 345.759 45.7757 345.482 45.157C345.204 44.5383 344.788 44.0797 344.234 43.781C343.7 43.461 343.018 43.301 342.186 43.301C341.226 43.301 340.404 43.5357 339.722 44.005C339.039 44.453 338.612 45.125 338.442 46.021H335.242C335.37 44.8903 335.754 43.9303 336.394 43.141C337.055 42.3303 337.898 41.7117 338.922 41.285C339.946 40.837 341.034 40.613 342.186 40.613C343.7 40.613 344.97 40.8797 345.994 41.413C347.018 41.9463 347.786 42.7037 348.298 43.685C348.831 44.645 349.098 45.797 349.098 47.141V57.125H346.314L346.058 54.405C345.823 54.8317 345.546 55.237 345.226 55.621C344.906 56.005 344.522 56.3357 344.074 56.613C343.647 56.8903 343.146 57.1037 342.57 57.253C342.015 57.4237 341.396 57.509 340.714 57.509ZM341.322 54.917C342.004 54.917 342.623 54.7783 343.178 54.501C343.732 54.2237 344.202 53.8503 344.586 53.381C344.991 52.8903 345.29 52.3463 345.482 51.749C345.695 51.1303 345.812 50.501 345.834 49.861V49.765H342.026C341.108 49.765 340.362 49.8823 339.786 50.117C339.231 50.3303 338.826 50.629 338.57 51.013C338.314 51.397 338.186 51.845 338.186 52.357C338.186 52.8903 338.303 53.349 338.538 53.733C338.794 54.0957 339.156 54.3837 339.626 54.597C340.095 54.8103 340.66 54.917 341.322 54.917ZM349.982 57.125V40.997H352.862L353.15 44.037C353.513 43.3117 353.982 42.7037 354.558 42.213C355.134 41.701 355.806 41.3063 356.574 41.029C357.364 40.7517 358.26 40.613 359.262 40.613V44.005H358.11C357.449 44.005 356.82 44.0903 356.222 44.261C355.625 44.4103 355.092 44.677 354.622 45.061C354.174 45.445 353.822 45.9677 353.566 46.629C353.31 47.2903 353.182 48.1117 353.182 49.093V57.125H349.982ZM365.828 57.509C364.292 57.509 362.927 57.157 361.732 56.453C360.538 55.749 359.599 54.7677 358.916 53.509C358.255 52.2503 357.924 50.789 357.924 49.125C357.924 47.4183 358.255 45.9357 358.916 44.677C359.599 43.397 360.538 42.405 361.732 41.701C362.927 40.9757 364.314 40.613 365.892 40.613C367.471 40.613 368.826 40.965 369.956 41.669C371.087 42.373 371.962 43.3117 372.58 44.485C373.199 45.637 373.508 46.917 373.508 48.325C373.508 48.5383 373.498 48.773 373.476 49.029C373.476 49.2637 373.466 49.5303 373.444 49.829H360.26V47.557H370.308C370.244 46.213 369.796 45.1677 368.964 44.421C368.132 43.653 367.098 43.269 365.86 43.269C364.986 43.269 364.186 43.4717 363.46 43.877C362.735 44.261 362.148 44.837 361.7 45.605C361.274 46.3517 361.06 47.301 361.06 48.453V49.349C361.06 50.5437 361.274 51.557 361.7 52.389C362.148 53.1997 362.735 53.8183 363.46 54.245C364.186 54.6503 364.975 54.853 365.828 54.853C366.852 54.853 367.695 54.629 368.356 54.181C369.018 53.733 369.508 53.125 369.828 52.357H373.028C372.751 53.3383 372.282 54.2237 371.62 55.013C370.959 55.781 370.138 56.389 369.156 56.837C368.196 57.285 367.087 57.509 365.828 57.509Z" fill="#FF0000" fill-opacity="0.5"/>
</g>
<defs>
<clipPath id="clip0_6_2">
<rect width="375" height="116" fill="white"/>
</clipPath>
</defs>
</svg>
